<?xml version="1.0" encoding="UTF-8"?>
<!DOCTYPE svg PUBLIC "-//W3C//DTD SVG 1.1//EN" "http://www.w3.org/Graphics/SVG/1.1/DTD/svg11.dtd">
<svg width="160mm" height="90mm" viewBox="0 0 16000 9000" version="1.1" baseProfile="tiny" xmlns="http://www.w3.org/2000/svg" stroke-width="28.222" stroke-linejoin="round" xml:space="preserve">
 <path fill="rgb(255,255,255)" stroke="none" d="M 8022,8999 L 74,8999 74,0 15971,0 15971,8999 8022,8999 Z"/>
 <path fill="none" stroke="rgb(179,179,179)" stroke-linejoin="round" d="M 8021,8257 L 236,8257 236,212 15806,212 15806,8257 8021,8257 Z"/>
 <path fill="none" stroke="rgb(179,179,179)" stroke-linejoin="round" d="M 15806,8256 L 236,8256"/>
 <path fill="none" stroke="rgb(179,179,179)" stroke-linejoin="round" d="M 15806,6646 L 236,6646"/>
 <path fill="none" stroke="rgb(179,179,179)" stroke-linejoin="round" d="M 15806,5037 L 236,5037"/>
 <path fill="none" stroke="rgb(179,179,179)" stroke-linejoin="round" d="M 15806,3429 L 236,3429"/>
 <path fill="none" stroke="rgb(179,179,179)" stroke-linejoin="round" d="M 15806,1820 L 236,1820"/>
 <path fill="none" stroke="rgb(179,179,179)" stroke-linejoin="round" d="M 15806,211 L 236,211"/>
 <path fill="none" stroke="rgb(179,179,179)" stroke-linejoin="round" d="M 236,8406 L 236,8256"/>
 <path fill="none" stroke="rgb(179,179,179)" stroke-linejoin="round" d="M 236,8406 L 236,8256"/>
 <path fill="none" stroke="rgb(179,179,179)" stroke-linejoin="round" d="M 1793,8406 L 1793,8256"/>
 <path fill="none" stroke="rgb(179,179,179)" stroke-linejoin="round" d="M 1793,8406 L 1793,8256"/>
 <path fill="none" stroke="rgb(179,179,179)" stroke-linejoin="round" d="M 3350,8406 L 3350,8256"/>
 <path fill="none" stroke="rgb(179,179,179)" stroke-linejoin="round" d="M 3350,8406 L 3350,8256"/>
 <path fill="none" stroke="rgb(179,179,179)" stroke-linejoin="round" d="M 4907,8406 L 4907,8256"/>
 <path fill="none" stroke="rgb(179,179,179)" stroke-linejoin="round" d="M 4907,8406 L 4907,8256"/>
 <path fill="none" stroke="rgb(179,179,179)" stroke-linejoin="round" d="M 6464,8406 L 6464,8256"/>
 <path fill="none" stroke="rgb(179,179,179)" stroke-linejoin="round" d="M 6464,8406 L 6464,8256"/>
 <path fill="none" stroke="rgb(179,179,179)" stroke-linejoin="round" d="M 8021,8406 L 8021,8256"/>
 <path fill="none" stroke="rgb(179,179,179)" stroke-linejoin="round" d="M 8021,8406 L 8021,8256"/>
 <path fill="none" stroke="rgb(179,179,179)" stroke-linejoin="round" d="M 9578,8406 L 9578,8256"/>
 <path fill="none" stroke="rgb(179,179,179)" stroke-linejoin="round" d="M 9578,8406 L 9578,8256"/>
 <path fill="none" stroke="rgb(179,179,179)" stroke-linejoin="round" d="M 11135,8406 L 11135,8256"/>
 <path fill="none" stroke="rgb(179,179,179)" stroke-linejoin="round" d="M 11135,8406 L 11135,8256"/>
 <path fill="none" stroke="rgb(179,179,179)" stroke-linejoin="round" d="M 12692,8406 L 12692,8256"/>
 <path fill="none" stroke="rgb(179,179,179)" stroke-linejoin="round" d="M 12692,8406 L 12692,8256"/>
 <path fill="none" stroke="rgb(179,179,179)" stroke-linejoin="round" d="M 14249,8406 L 14249,8256"/>
 <path fill="none" stroke="rgb(179,179,179)" stroke-linejoin="round" d="M 14249,8406 L 14249,8256"/>
 <path fill="none" stroke="rgb(179,179,179)" stroke-linejoin="round" d="M 15806,8406 L 15806,8256"/>
 <path fill="none" stroke="rgb(179,179,179)" stroke-linejoin="round" d="M 15806,8406 L 15806,8256"/>
 <path fill="none" stroke="rgb(179,179,179)" stroke-linejoin="round" d="M 236,8256 L 15806,8256"/>
 <path fill="none" stroke="rgb(179,179,179)" stroke-linejoin="round" d="M 7872,8256 L 8021,8256"/>
 <path fill="none" stroke="rgb(179,179,179)" stroke-linejoin="round" d="M 7872,8256 L 8021,8256"/>
 <path fill="none" stroke="rgb(179,179,179)" stroke-linejoin="round" d="M 7872,6646 L 8021,6646"/>
 <path fill="none" stroke="rgb(179,179,179)" stroke-linejoin="round" d="M 7872,6646 L 8021,6646"/>
 <path fill="none" stroke="rgb(179,179,179)" stroke-linejoin="round" d="M 7872,5037 L 8021,5037"/>
 <path fill="none" stroke="rgb(179,179,179)" stroke-linejoin="round" d="M 7872,5037 L 8021,5037"/>
 <path fill="none" stroke="rgb(179,179,179)" stroke-linejoin="round" d="M 7872,3429 L 8021,3429"/>
 <path fill="none" stroke="rgb(179,179,179)" stroke-linejoin="round" d="M 7872,3429 L 8021,3429"/>
 <path fill="none" stroke="rgb(179,179,179)" stroke-linejoin="round" d="M 7872,1820 L 8021,1820"/>
 <path fill="none" stroke="rgb(179,179,179)" stroke-linejoin="round" d="M 7872,1820 L 8021,1820"/>
 <path fill="none" stroke="rgb(179,179,179)" stroke-linejoin="round" d="M 7872,211 L 8021,211"/>
 <path fill="none" stroke="rgb(179,179,179)" stroke-linejoin="round" d="M 7872,211 L 8021,211"/>
 <path fill="none" stroke="rgb(179,179,179)" stroke-linejoin="round" d="M 8021,8256 L 8021,211"/>
 <path fill="none" stroke="rgb(255,66,14)" stroke-linejoin="round" d="M 236,3493 L 236,3429 236,3365 236,3300 236,3204 243,3171 251,3075 259,2914 275,2817 283,2624 290,2399 298,2174 306,2013 314,1755 330,1627 337,1627 345,1755 353,1820 361,2013 369,2206 384,2302 391,2463 399,2656 407,2721 415,2850 423,2914 438,3043 446,3043 454,3139 462,3236 470,3268 493,3300 501,3300 509,3365 517,3332 524,3429 532,3397 547,3429 555,3461 563,3493 570,3493 578,3558 594,3525 602,3558 610,3558 617,3654 625,3590 633,3622 649,3622 657,3558 664,3558 672,3686 680,3622 688,3654 703,3590 710,3558 718,3493 726,3525 734,3525 742,3654 757,3622 765,3686 773,3686 781,3719 789,3719 797,3719 812,3686 820,3751 828,3525 836,3171 844,3107 858,3525 866,3590 874,3558 882,3558 890,3493 897,3429 913,3332 921,3300 937,3268 944,3236 952,3139 968,3075 976,2978 984,2914 991,2785 999,2560 1006,2367 1022,2142 1030,1820 1038,1723 1045,1530 1053,1466 1061,1530 1077,1659 1085,1852 1092,1916 1100,2142 1108,2399 1116,2463 1132,2624 1139,2721 1147,2850 1155,2914 1162,3011 1178,3043 1185,3043 1193,3107 1201,3171 1209,3171 1217,3204 1232,3268 1240,3300 1248,3300 1256,3397 1264,3429 1272,3461 1287,3493 1295,3558 1303,3558 1318,3622 1325,3686 1341,3622 1349,3686 1357,3654 1365,3686 1372,3686 1380,3751 1396,3686 1404,3686 1419,3654 1427,3654 1443,3654 1459,3686 1473,3686 1481,3686 1497,3783 1512,3815 1520,3719 1528,3783 1536,3654 1552,3365 1559,3236 1567,3622 1575,3847 1583,3879 1591,3879 1606,3847 1614,3751 1622,3686 1637,3622 1645,3493 1660,3461 1668,3365 1676,3300 1684,3171 1692,3139 1699,2978 1715,2817 1723,2656 1731,2431 1739,2174 1746,2013 1762,1755 1770,1627 1785,1755 1793,1884 1800,2109 1816,2270 1824,2399 1832,2528 1840,2656 1847,2785 1855,2882 1871,3011 1879,3139 1887,3075 1894,3171 1902,3268 1910,3300 1926,3300 1933,3365 1940,3429 1948,3429 1956,3461 1964,3525 1980,3493 1987,3525 1995,3558 2003,3622 2011,3590 2027,3622 2034,3622 2042,3654 2058,3686 2066,3654 2081,3686 2088,3686 2096,3719 2104,3686 2112,3686 2135,3622 2143,3558 2151,3590 2159,3622 2167,3654 2174,3622 2190,3686 2198,3654 2206,3719 2214,3686 2221,3686 2229,3719 2244,3686 2252,3365 2260,3236 2267,3525 2275,3815 2299,3847 2307,3751 2314,3686 2322,3654 2330,3622 2346,3461 2354,3429 2361,3365 2369,3300 2377,3204 2385,3171 2400,3011 2407,2914 2415,2721 2423,2560 2431,2399 2439,2077 2454,1788 2462,1723 2470,1562 2478,1562 2486,1691 2494,1884 2509,2013 2517,2174 2525,2302 2533,2463 2541,2624 2548,2721 2563,2785 2571,2914 2579,2978 2587,3043 2595,3043 2610,3171 2618,3171 2634,3236 2642,3300 2649,3268 2665,3300 2673,3332 2681,3365 2689,3365 2704,3429 2719,3493 2727,3493 2735,3525 2742,3525 2758,3525 2774,3558 2782,3493 2789,3558 2797,3525 2813,3461 2829,3493 2836,3493 2844,3461 2852,3493 2860,3558 2867,3558 2882,3558 2890,3558 2898,3590 2906,3525 2914,3558 2929,3268 2937,3075 2945,3171 2953,3590 2961,3558 2969,3622 2984,3590 2992,3493 3000,3429 3015,3300 3038,3204 3046,3171 3054,3075 3062,3043 3069,2882 3077,2850 3093,2624 3101,2496 3109,2270 3116,2013 3124,1820 3132,1627 3148,1498 3156,1433 3163,1594 3170,1659 3178,1820 3194,1981 3202,2142 3209,2302 3217,2399 3225,2560 3233,2656 3249,2785 3256,2817 3264,2914 3272,2946 3280,3043 3288,3075 3303,3107 3311,3075 3319,3204 3326,3171 3334,3204 3342,3236 3357,3268 3373,3300 3381,3332 3389,3300 3397,3332 3412,3429 3420,3365 3428,3332 3436,3365 3444,3429 3451,3300 3467,3397 3482,3429 3490,3397 3497,3429 3513,3429 3521,3493 3537,3525 3544,3558 3552,3429 3568,3139 3576,3043 3584,3300 3591,3590 3599,3622 3607,3590 3623,3525 3631,3493 3637,3332 3645,3300 3653,3268 3661,3236 3677,3075 3684,3107 3692,3043 3700,2914 3708,2785 3716,2721 3731,2528 3739,2399 3747,2174 3755,2013 3763,1691 3778,1530 3786,1498 3793,1530 3809,1755 3817,1884 3832,2077 3840,2142 3848,2367 3856,2399 3864,2592 3871,2656 3887,2753 3895,2785 3903,2914 3918,2914 3926,3011 3942,3075 3949,3043 3957,3139 3964,3107 3972,3139 3980,3171 3996,3236 4011,3268 4027,3300 4051,3300 4058,3332 4066,3365 4082,3429 4097,3429 4104,3397 4120,3397 4128,3365 4136,3365 4152,3365 4159,3397 4167,3429 4175,3429 4183,3461 4191,3461 4206,3429 4214,3525 4222,3429 4230,3204 4238,3043 4246,3075 4260,3429 4268,3558 4284,3525 4292,3429 4299,3429 4315,3332 4323,3268 4331,3236 4339,3204 4346,3107 4362,3043 4370,3011 4378,2817 4386,2721 4393,2656 4401,2399 4416,2270 4424,2013 4432,1755 4439,1498 4447,1466 4455,1433 4471,1433 4479,1530 4486,1788 4494,1981 4502,2142 4510,2238 4526,2431 4533,2496 4541,2656 4549,2753 4557,2785 4564,2882 4579,2946 4587,3043 4595,3011 4603,3075 4611,3139 4619,3075 4634,3171 4642,3171 4650,3204 4658,3171 4666,3268 4681,3236 4689,3268 4697,3300 4705,3332 4713,3300 4719,3365 4735,3429 4743,3365 4751,3365 4759,3429 4766,3461 4774,3429 4790,3429 4798,3493 4806,3429 4813,3397 4821,3429 4829,3461 4845,3397 4853,3461 4860,3525 4868,3493 4875,3525 4883,3558 4899,3558 4914,3300 4922,3107 4930,3139 4946,3493 4954,3558 4961,3590 4969,3525 4977,3558 4985,3429 5001,3397 5008,3332 5016,3300 5024,3171 5039,3075 5054,3011 5062,2882 5070,2850 5078,2656 5086,2496 5094,2302 5109,2045 5117,1820 5125,1627 5133,1498 5141,1433 5148,1466 5164,1659 5172,1788 5179,1948 5187,2142 5194,2335 5202,2431 5218,2560 5226,2721 5234,2785 5241,2882 5249,3011 5265,3043 5273,3043 5281,3107 5288,3171 5296,3171 5320,3204 5328,3300 5334,3300 5342,3365 5350,3365 5358,3429 5374,3429 5381,3429 5389,3429 5397,3461 5405,3525 5428,3525 5436,3558 5452,3558 5460,3558 5468,3590 5483,3558 5490,3558 5506,3525 5514,3493 5529,3558 5545,3558 5561,3558 5568,3558 5584,3590 5592,3622 5600,3686 5608,3558 5615,3332 5623,3139 5639,3332 5646,3622 5654,3751 5661,3686 5669,3654 5677,3622 5693,3558 5701,3493 5709,3429 5716,3365 5724,3300 5732,3171 5748,3171 5756,3107 5763,2978 5771,2882 5779,2753 5787,2528 5802,2302 5809,2045 5817,1884 5825,1627 5833,1562 5849,1498 5856,1498 5864,1691 5872,1884 5880,2045 5888,2270 5903,2399 5911,2528 5919,2624 5927,2785 5935,2850 5943,2914 5957,2978 5965,3075 5973,3107 5981,3204 5989,3236 5996,3236 6012,3236 6020,3300 6036,3300 6051,3365 6067,3365 6075,3332 6083,3429 6090,3461 6098,3429 6113,3461 6121,3493 6129,3461 6144,3525 6152,3461 6168,3461 6176,3461 6183,3461 6191,3397 6199,3461 6207,3429 6223,3493 6230,3493 6238,3525 6246,3493 6254,3558 6276,3622 6284,3590 6292,3525 6300,3236 6308,3043 6316,3300 6331,3590 6339,3686 6347,3622 6355,3558 6363,3558 6370,3429 6386,3397 6394,3332 6402,3300 6410,3204 6416,3171 6432,3075 6440,2978 6448,2882 6456,2785 6464,2592 6471,2399 6487,2206 6495,2013 6503,1755 6511,1498 6518,1466 6526,1401 6542,1530 6550,1755 6558,1852 6565,2013 6572,2238 6580,2302 6596,2431 6604,2656 6611,2656 6619,2817 6627,2817 6635,2946 6651,2978 6658,3075 6666,3107 6674,3171 6682,3107 6690,3171 6705,3236 6721,3300 6728,3332 6736,3300 6751,3300 6759,3429 6775,3429 6791,3429 6806,3461 6814,3429 6822,3493 6830,3461 6845,3461 6861,3429 6869,3461 6877,3429 6884,3429 6891,3461 6899,3493 6915,3493 6923,3525 6938,3525 6946,3558 6954,3525 6970,3429 6978,3204 6985,3107 6993,3332 7001,3654 7017,3686 7025,3622 7032,3590 7039,3558 7047,3429 7055,3397 7071,3397 7078,3300 7086,3268 7094,3236 7102,3139 7110,3043 7125,2914 7133,2882 7141,2656 7149,2431 7157,2270 7165,2013 7180,1755 7188,1627 7195,1498 7211,1594 7218,1788 7234,1948 7242,2142 7250,2270 7259,2399 7268,2463 7277,2624 7287,2785 7295,2817 7305,2850 7314,3043 7323,3043 7332,3075 7342,3139 7350,3171 7359,3139 7368,3236 7377,3268 7387,3268 7395,3300 7405,3365 7414,3300 7424,3365 7432,3397 7442,3461 7451,3429 7460,3461 7469,3525 7488,3461 7496,3558 7514,3558 7523,3558 7532,3590 7542,3558 7551,3558 7569,3525 7578,3525 7596,3493 7606,3558 7624,3622 7633,3558 7643,3654 7651,3622 7660,3622 7669,3654 7679,3525 7687,3236 7697,3107 7706,3332 7715,3686 7733,3686 7743,3654 7751,3558 7761,3525 7770,3461 7780,3429 7788,3332 7798,3268 7806,3236 7815,3107 7824,3043 7833,2978 7843,2817 7851,2656 7861,2528 7870,2270 7879,2077 7888,1788 7898,1659 7907,1498 7916,1530 7925,1594 7935,1755 7944,1916 7953,2045 7961,2270 7970,2399 7979,2560 7988,2656 7998,2721 8007,2850 8016,2946 8025,3011 8034,3043 8044,3107 8053,3171 8062,3204 8071,3236 8080,3332 8089,3300 8099,3300 8107,3365 8116,3429 8125,3397 8135,3429 8143,3461 8153,3493 8171,3525 8180,3558 8190,3525 8199,3558 8208,3558 8217,3525 8226,3558 8235,3558 8254,3558 8263,3590 8271,3525 8280,3461 8290,3429 8298,3525 8308,3493 8317,3525 8326,3558 8335,3558 8344,3558 8363,3622 8372,3622 8391,3558 8399,3300 8409,3075 8418,3300 8426,3654 8445,3654 8454,3590 8463,3558 8472,3461 8481,3429 8491,3332 8499,3300 8509,3204 8518,3171 8527,3043 8536,3011 8546,2882 8555,2753 8564,2560 8573,2399 8581,2206 8591,1916 8599,1755 8609,1498 8618,1369 8627,1433 8636,1498 8646,1594 8655,1755 8664,1948 8673,2142 8682,2206 8691,2431 8700,2592 8710,2656 8719,2721 8728,2817 8736,2914 8746,2914 8754,3043 8764,3075 8773,3075 8783,3107 8791,3171 8799,3139 8807,3204 8823,3204 8830,3236 8838,3204 8846,3300 8854,3268 8862,3332 8877,3365 8885,3429 8892,3332 8900,3429 8908,3429 8916,3461 8931,3429 8939,3493 8947,3429 8955,3493 8963,3429 8970,3525 8986,3461 8994,3493 9002,3429 9010,3461 9017,3397 9025,3429 9041,3397 9048,3429 9056,3429 9063,3493 9071,3461 9087,3525 9095,3525 9103,3558 9110,3558 9118,3525 9126,3300 9142,3043 9150,3107 9157,3558 9165,3590 9173,3622 9181,3558 9197,3525 9203,3429 9211,3365 9219,3300 9227,3204 9235,3139 9250,3139 9258,3043 9266,2914 9274,2850 9282,2785 9290,2624 9305,2431 9313,2270 9321,2013 9329,1755 9337,1562 9352,1433 9359,1305 9367,1369 9375,1498 9383,1659 9390,1820 9406,2013 9414,2238 9422,2302 9430,2496 9437,2592 9445,2656 9461,2785 9469,2882 9477,2914 9484,2946 9492,3011 9500,3075 9515,3043 9523,3171 9530,3139 9538,3171 9546,3171 9554,3268 9570,3300 9578,3300 9593,3332 9601,3332 9617,3397 9625,3365 9632,3397 9648,3429 9656,3397 9671,3429 9686,3461 9694,3429 9702,3525 9710,3429 9725,3429 9733,3365 9741,3397 9749,3300 9757,3397 9765,3397 9780,3493 9788,3397 9796,3429 9804,3461 9812,3493 9818,3461 9834,3558 9842,3493 9850,3332 9858,3107 9865,3043 9873,3429 9889,3622 9905,3622 9912,3493 9920,3493 9936,3397 9944,3300 9952,3236 9959,3204 9967,3139 9974,3043 9990,3043 9998,2914 10005,2753 10013,2656 10021,2496 10029,2270 10045,2013 10052,1820 10060,1498 10068,1369 10076,1273 10084,1337 10099,1401 10107,1659 10115,1788 10123,1981 10130,2174 10138,2270 10153,2399 10161,2528 10169,2656 10177,2785 10200,2882 10208,2946 10216,3043 10224,3011 10232,3139 10239,3107 10255,3171 10263,3139 10271,3204 10285,3268 10293,3300 10309,3236 10317,3268 10325,3365 10332,3300 10340,3332 10364,3397 10372,3332 10380,3429 10395,3429 10419,3525 10427,3429 10434,3429 10441,3397 10449,3429 10457,3365 10473,3365 10480,3332 10488,3397 10504,3493 10520,3493 10535,3461 10543,3558 10551,3461 10559,3268 10574,3011 10582,3139 10589,3429 10597,3590 10605,3558 10613,3525 10628,3461 10636,3429 10644,3300 10660,3171 10667,3171 10683,3043 10691,3075 10699,2946 10707,2850 10714,2721 10722,2656 10738,2399 10745,2238 10753,1981 10760,1788 10768,1498 10784,1369 10792,1305 10800,1369 10807,1466 10815,1723 10823,1884 10839,2013 10847,2174 10854,2399 10862,2431 10870,2592 10878,2753 10894,2785 10900,2817 10908,2914 10916,2946 10924,3043 10932,3107 10947,3171 10955,3139 10963,3171 10971,3204 10987,3236 11002,3300 11010,3300 11026,3365 11034,3429 11041,3397 11056,3429 11064,3429 11080,3429 11087,3461 11103,3493 11111,3429 11119,3429 11135,3397 11142,3332 11158,3365 11166,3429 11174,3397 11182,3461 11189,3461 11197,3429 11212,3493 11220,3558 11228,3493 11235,3558 11243,3493 11251,3236 11267,3011 11275,3171 11282,3525 11290,3622 11298,3558 11322,3493 11329,3429 11337,3365 11353,3268 11368,3236 11375,3171 11383,3107 11391,3011 11399,2914 11407,2785 11422,2624 11430,2496 11438,2270 11446,2013 11454,1788 11462,1562 11477,1498 11485,1369 11493,1498 11501,1627 11509,1755 11516,2013 11531,2206 11539,2335 11547,2496 11555,2592 11562,2689 11570,2785 11586,2914 11594,2946 11602,3043 11609,3075 11617,3171 11625,3171 11641,3204 11649,3236 11656,3300 11664,3268 11671,3332 11687,3332 11695,3365 11702,3397 11710,3429 11718,3429 11726,3461 11742,3461 11749,3525 11757,3493 11765,3558 11781,3558 11796,3558 11804,3654 11812,3558 11820,3590 11835,3558 11850,3493 11858,3558 11874,3558 11882,3525 11889,3590 11905,3622 11913,3622 11921,3654 11929,3686 11937,3654 11952,3622 11960,3300 11968,3171 11976,3268 11983,3686 11990,3783 12006,3686 12022,3654 12030,3558 12037,3525 12045,3429 12061,3332 12069,3268 12077,3268 12084,3171 12092,3107 12100,3011 12116,2882 12124,2689 12131,2528 12138,2367 12146,2109 12154,1788 12170,1659 12177,1498 12185,1466 12193,1530 12201,1659 12209,1820 12224,2013 12232,2206 12240,2367 12248,2463 12256,2656 12271,2689 12279,2817 12287,2882 12294,3043 12310,3107 12325,3171 12333,3204 12341,3171 12349,3268 12364,3300 12380,3300 12388,3397 12396,3397 12404,3429 12419,3461 12435,3429 12443,3525 12450,3558 12457,3558 12473,3622 12489,3590 12504,3622 12512,3622 12520,3558 12536,3558 12544,3558 12559,3558 12567,3622 12575,3590 12591,3654 12598,3686 12613,3654 12621,3686 12629,3590 12644,3332 12652,3139 12660,3558 12668,3783 12676,3815 12684,3751 12699,3783 12707,3590 12723,3558 12731,3493 12739,3429 12753,3429 12761,3365 12769,3236 12777,3171 12785,3107 12792,2914 12808,2785 12816,2592 12824,2367 12832,2077 12839,1884 12855,1627 12863,1530 12871,1530 12879,1691 12886,1755 12894,1981 12909,2142 12917,2367 12925,2399 12932,2624 12940,2689 12948,2817 12964,2914 12972,2978 12979,3043 12987,3107 12995,3204 13003,3268 13019,3268 13026,3300 13034,3300 13042,3397 13050,3365 13058,3461 13072,3365 13080,3429 13088,3493 13096,3525 13104,3493 13119,3493 13127,3525 13135,3558 13143,3525 13151,3622 13159,3558 13174,3558 13182,3525 13190,3558 13198,3461 13206,3558 13213,3493 13228,3558 13236,3558 13244,3622 13252,3558 13259,3622 13267,3622 13283,3686 13291,3654 13299,3493 13306,3236 13314,3107 13322,3365 13338,3654 13346,3654 13353,3590 13361,3558 13369,3525 13376,3429 13392,3397 13399,3332 13407,3300 13415,3268 13423,3171 13439,3107 13446,2978 13454,2914 13462,2817 13470,2624 13478,2431 13494,2238 13501,1981 13509,1755 13517,1530 13525,1466 13532,1498 13547,1594 13555,1788 13563,1884 13571,2142 13579,2270 13587,2431 13602,2528 13610,2656 13618,2753 13626,2850 13634,2914 13641,3011 13657,3043 13665,3171 13680,3171 13687,3171 13703,3204 13711,3236 13719,3236 13727,3300 13734,3365 13742,3365 13758,3365 13766,3397 13774,3429 13781,3397 13789,3397 13797,3429 13813,3493 13821,3429 13828,3461 13835,3429 13843,3397 13851,3397 13867,3461 13874,3493 13882,3461 13890,3493 13898,3493 13906,3493 13921,3558 13937,3525 13945,3590 13953,3461 13961,3139 13976,3043 13984,3365 13991,3590 13999,3622 14007,3622 14022,3525 14030,3461 14038,3397 14046,3397 14054,3332 14061,3300 14077,3236 14085,3171 14093,3043 14101,2978 14108,2914 14116,2721 14132,2592 14140,2399 14147,2142 14154,1884 14162,1691 14170,1530 14186,1369 14194,1433 14201,1627 14209,1755 14217,1884 14225,2109 14241,2238 14249,2367 14256,2496 14264,2560 14272,2656 14288,2785 14296,2882 14302,2914 14310,2946 14318,3043 14342,3107 14349,3139 14357,3171 14365,3139 14373,3204 14381,3236 14396,3268 14404,3236 14412,3365 14420,3300 14428,3300 14436,3365 14451,3429 14458,3397 14466,3365 14474,3429 14482,3429 14505,3461 14513,3493 14521,3429 14529,3397 14536,3461 14544,3332 14560,3397 14568,3365 14576,3332 14591,3429 14607,3397 14614,3429 14622,3461 14629,3493 14637,3461 14645,3461 14661,3525 14669,3300 14676,3011 14684,3107 14692,3429 14700,3558 14716,3558 14731,3525 14739,3429 14747,3397 14755,3332 14769,3268 14777,3204 14785,3139 14793,3075 14801,3011 14809,2978 14824,2850 14832,2656 14840,2496 14848,2302 14856,2077 14871,1884 14879,1627 14887,1433 14895,1369 14903,1498 14910,1562 14925,1755 14933,1948 14941,2142 14949,2206 14956,2399 14964,2496 14980,2656 14988,2656 14996,2753 15003,2850 15019,3011 15035,3043 15043,3043 15051,3075 15058,3171 15073,3171 15089,3236 15097,3236 15112,3300 15128,3300 15144,3397 15151,3397 15159,3332 15167,3429 15191,3429 15198,3397 15206,3429 15214,3525 15222,3461 15244,3429 15252,3493 15260,3461 15276,3429 15299,3429 15307,3429 15315,3332 15323,3365 15331,3397 15354,3365 15362,3397 15370,3493 15384,3429 15392,3493 15408,3525 15416,3461 15424,3236 15431,3043 15439,3043 15455,3493 15463,3558 15471,3558 15478,3525 15494,3365 15510,3397 15518,3268 15525,3300 15533,3139 15548,3043 15564,2978 15571,2817 15579,2785 15587,2656 15595,2463 15603,2270 15618,2013 15626,1755 15634,1562 15642,1433 15650,1369 15658,1305 15673,1498 15681,1594 15689,1820 15696,2013 15704,2174 15711,2302 15727,2399 15735,2528 15743,2656 15751,2721 15758,2785 15774,2850 15782,2914 15790,2978 15798,3075 15806,3043 15806,3171 15806,3139"/>
 <path fill="none" stroke="rgb(0,69,134)" stroke-linejoin="round" d="M 236,7741 L 236,7612 236,7676 236,7612 236,7741 243,7612 251,7676 259,7612 275,7612 283,7547 298,7483 306,7483 314,7290 330,7161 337,6839 345,6711 353,6324 361,6131 369,5810 384,5488 391,5359 399,5295 407,5166 415,5166 423,5101 438,5295 446,5295 454,5552 462,5616 470,5874 477,6003 493,6260 501,6453 509,6711 517,6839 524,7097 532,7290 547,7483 555,7483 563,7612 570,7676 578,7805 594,7741 602,7998 610,7869 617,7998 625,7934 633,7998 649,7998 657,8062 664,8062 672,8256 680,8127 688,8256 703,8127 710,8191 718,8127 726,8256 734,8127 742,8256"/>
 <path fill="none" stroke="rgb(0,69,134)" stroke-linejoin="round" d="M 765,8256 L 773,8256 781,8191 789,8191 797,8127 812,7998 820,8127 828,7934 836,7998 844,7934 858,7869 866,7741 874,7805 882,7676 897,7612 913,7612 921,7547 929,7612 937,7483 944,7612 952,7354 968,7483 976,7419 984,7354 991,7290 999,7226 1006,7161 1022,7226 1030,6968 1038,7033 1045,6839 1053,6775 1061,6453 1077,6453 1085,6131 1092,5938 1100,5681 1108,5552 1116,5423 1132,5423 1139,5295 1147,5423 1155,5423 1162,5681 1178,5810 1185,6003 1193,6067 1201,6260 1209,6453 1217,6711 1232,6839 1240,7033 1248,7226 1256,7354 1264,7419 1272,7483 1287,7547 1295,7547 1303,7547 1311,7676 1318,7612 1325,7676 1341,7612 1349,7741 1357,7741 1365,7869 1372,7934 1380,7998 1396,8062 1404,8127 1412,8256 1419,8256 1427,8127 1443,8256 1451,8127 1459,8256 1466,8191 1473,8256 1481,8191 1497,8191 1505,8127 1512,8191 1520,8062 1528,8062 1536,7998 1552,7998 1559,7869 1567,7934 1575,7741 1583,7805 1591,7741 1606,7805 1614,7676 1622,7805 1629,7676 1637,7805 1645,7676 1660,7805 1668,7741 1676,7741 1684,7676 1692,7741 1699,7741 1715,7741 1723,7612 1731,7612 1746,7676 1762,7483 1770,7290 1778,7033 1785,6904 1793,6518 1800,6324 1816,6067 1824,5810 1832,5616 1840,5552 1847,5423 1855,5488 1871,5488 1879,5616 1894,5874 1902,5938 1910,6260 1926,6324 1933,6582 1940,6711 1948,6968 1956,7097 1964,7354 1980,7354 1987,7547 1995,7612 2003,7741 2011,7676 2027,7869 2034,7741 2042,7869 2058,7934 2081,8062 2088,7998 2096,8062 2104,8127 2112,8127 2120,8062 2135,8191 2143,8127 2151,8127 2167,8256 2174,8127 2190,8256 2198,8127 2206,8127 2214,7998 2221,8062 2229,7998 2244,7998 2252,7934 2260,7934 2267,7869 2275,7934 2283,7741 2299,7869 2307,7741 2314,7741 2330,7869 2346,7741 2361,7805 2369,7805 2377,7741 2385,7741 2400,7741 2407,7805 2415,7676 2423,7741 2439,7676 2454,7612 2462,7483 2470,7290 2478,7161 2486,6968 2494,6711 2509,6389 2517,6260 2525,5938 2533,5810 2541,5552 2548,5488 2563,5423 2571,5552 2579,5552 2587,5681 2595,5745 2610,5938 2618,6067 2626,6324 2634,6453 2642,6775 2649,6904 2665,7033 2673,7290 2681,7547 2689,7612 2696,7805 2704,7741 2719,7869 2727,7805 2735,7869 2742,7741 2750,7869 2758,7805 2774,7869 2782,7805 2789,7869 2797,7934 2805,7998 2813,7998 2829,8127 2836,8062 2844,8127 2852,8127 2867,8127 2882,8127 2890,8062 2906,7934 2914,7998 2929,7934 2945,7869 2953,7934 2961,7805 2969,7869 2984,7676 2992,7869 3000,7741 3008,7805 3015,7676 3022,7805 3038,7676 3046,7805 3054,7741 3062,7869 3069,7741 3077,7805 3093,7741 3101,7869 3109,7805 3116,7869 3124,7741 3148,7483 3156,7419 3163,7226 3170,6968 3178,6711 3194,6453 3202,6131 3209,5938 3217,5745 3225,5552 3233,5488 3249,5552 3256,5488 3264,5552 3272,5616 3280,5938 3288,6003 3303,6260 3311,6389 3319,6711 3326,6839 3334,7226 3342,7290 3357,7483 3365,7547 3373,7741 3381,7741 3397,7805 3412,7869 3420,7805 3428,7869 3436,7869 3451,7805 3467,7869 3482,7934 3490,7998 3497,8127 3513,7998 3521,8191 3529,8127 3537,8127 3544,8127 3552,8191 3568,8127 3576,8127 3584,7998 3591,8062 3599,8062 3623,7998 3631,7934 3637,7805 3645,7869 3653,7741 3677,7676 3684,7741 3692,7676 3700,7676 3708,7612 3716,7612 3731,7612 3739,7676 3747,7612 3755,7676 3763,7483 3778,7547 3786,7354 3793,7290 3801,6968 3809,6839 3817,6582 3832,6324 3840,6003 3848,5938 3856,5681 3864,5681 3887,5681 3895,5616 3903,5874 3911,5810 3918,6067 3926,6196 3942,6453 3949,6646 3957,6839 3964,6968 3972,7226 3980,7290 3996,7547 4011,7741 4019,7612 4027,7741 4051,7805 4058,7676 4066,7741 4082,7869 4097,7741 4104,7869 4120,7998 4128,7869 4136,8062 4152,7998 4159,8127 4167,8062 4175,8127 4183,8191 4191,8127 4206,8127 4214,8191 4222,8062 4230,8127 4238,7998 4246,7998 4260,7998 4268,7998 4276,7869 4284,7934 4292,7869 4299,7869 4315,7869 4331,7805 4339,7741 4362,7676 4370,7676 4386,7612 4393,7741 4401,7547 4416,7741 4424,7612 4439,7419 4447,7483 4455,7226 4471,6968 4479,6711 4486,6453 4494,6196 4502,5938 4510,5616 4526,5552 4533,5423 4549,5423 4557,5488 4564,5552 4579,5810 4587,5810 4595,6067 4603,6196 4611,6389 4619,6518 4634,6839 4642,6904 4650,7226 4658,7226 4666,7483 4681,7483 4689,7676 4697,7676 4705,7805 4713,7741 4719,7934 4735,7934 4751,7934 4759,8062 4766,7998 4774,8127 4790,8191 4798,8256 4806,8127 4813,8256 4821,8191 4829,8256 4845,8127 4853,8256 4860,8127 4868,8191 4875,8127 4899,8191 4914,8127 4930,8062 4946,8062 4954,7869 4961,7998 4969,7869 4985,7741 5001,7869 5008,7805 5024,7676 5031,7805 5039,7676 5054,7805 5062,7741 5070,7805 5078,7741 5094,7741 5109,7741 5117,7676 5125,7612 5133,7483 5141,7290 5148,6968 5164,6775 5172,6453 5179,6260 5187,6003 5194,5810 5202,5616 5218,5552 5226,5423 5234,5488 5241,5488 5249,5681 5265,5681 5273,5874 5281,6067 5288,6260 5296,6324 5304,6646 5320,6775 5328,7033 5334,7097 5342,7354 5350,7419 5358,7612 5374,7676 5381,7741 5389,7741 5397,7869 5405,7869 5413,7998 5428,7869 5436,7998 5444,7934 5452,7998 5460,7998 5468,8062 5483,8062 5490,8191 5506,8256 5514,8127 5529,8256 5537,8191 5545,8256 5553,8127 5561,8127 5568,8127 5584,8127 5592,7998 5600,8127 5608,7998 5615,8062 5623,7869 5639,7869 5646,7741 5654,7805 5661,7741 5669,7805 5677,7676 5693,7676 5701,7547 5709,7612 5724,7676 5732,7612 5748,7741 5756,7612 5763,7612 5779,7612 5787,7612 5802,7612 5809,7547 5817,7547 5825,7354 5833,7290 5849,6968 5856,6839 5864,6582 5872,6196 5880,5938 5888,5810 5903,5552 5911,5423 5919,5295 5927,5359 5935,5295 5943,5359 5957,5423 5965,5552 5973,5745 5981,6003 5989,6067 5996,6324 6012,6453 6020,6775 6028,6904 6036,7097 6043,7226 6051,7483 6067,7547 6075,7612 6083,7741 6090,7741 6098,7805 6113,7869 6121,7869 6129,7998 6144,8062 6152,8127 6168,8256 6176,8191 6183,8256 6191,8127 6199,8256 6223,8256 6230,8191 6238,8256 6246,8127 6254,8256 6261,8191 6276,8191 6284,8127 6292,8127 6300,8062 6308,8062 6316,7998 6331,7998 6339,7934 6347,7934 6355,7805 6363,7805 6370,7741 6386,7741 6394,7741 6402,7805 6410,7741 6416,7869 6432,7741 6440,7869 6448,7741 6456,7805 6464,7741 6471,7741 6487,7741 6495,7676 6503,7612 6511,7612 6518,7419 6526,7290 6542,7033 6550,6775 6558,6389 6565,6196 6572,5874 6580,5810 6596,5552 6604,5488 6611,5359 6619,5423 6627,5423 6635,5552 6651,5552 6658,5938 6666,5938 6674,6260 6682,6324 6690,6711 6705,6839 6713,7161 6721,7290 6728,7483 6736,7547 6751,7612 6759,7676 6767,7741 6775,7741 6791,7741 6806,7805 6814,7741 6822,7869 6830,7805 6838,7998 6845,7998 6861,7998 6869,7998 6877,8191 6884,8127 6891,8191 6899,8256 6915,8256 6923,8127 6931,8256 6938,8127 6946,8191 6954,8127 6970,8256 6978,8062 6985,8127 6993,7998 7017,7869 7025,7934 7032,7869 7039,7805 7047,7676 7055,7805 7071,7805 7086,7676 7094,7741 7102,7741 7110,7676 7125,7676 7133,7741 7141,7612 7149,7676 7157,7612 7180,7483 7188,7483 7195,7226 7203,7161 7211,6968 7218,6711 7234,6389 7242,6196 7250,5938 7259,5810 7268,5552 7277,5552 7287,5488 7295,5552 7305,5616 7314,5810 7323,5874 7332,6067 7342,6196 7350,6324 7359,6453 7368,6775 7377,6839 7387,7161 7395,7290 7405,7483 7414,7547 7424,7676 7432,7676 7442,7869 7460,7934 7469,7869 7478,7934 7488,7869 7496,7998 7514,7998 7523,7998 7532,8062 7542,8127 7551,8127 7560,8062 7569,8127 7578,8191 7587,8256 7596,8127 7606,8191 7624,8256 7633,7998 7643,8127 7651,7998 7660,7998 7679,7998 7687,7869 7697,7934 7706,7805 7715,7934 7724,7741 7733,7805 7743,7741 7751,7805 7761,7676 7770,7741 7780,7612 7788,7741 7798,7676 7806,7612 7815,7612 7824,7676 7833,7612 7843,7612 7851,7483 7861,7612 7870,7483 7879,7547 7888,7354 7898,7354 7907,7097 7916,6968 7925,6646 7935,6453 7944,6260 7953,5938 7961,5745 7970,5616 7979,5488 7988,5488 7998,5359 8007,5488 8016,5552 8025,5681 8034,5810 8044,6003 8053,6196 8062,6324 8071,6582 8080,6839 8089,6839 8099,7097 8107,7226 8116,7419 8125,7483 8135,7612 8143,7676 8153,7869 8162,7741 8171,7934 8180,7869 8190,7934 8199,7934 8208,7934 8217,7869 8226,7998 8235,7998 8254,7998 8263,8191 8271,8127 8280,8127 8290,8062 8298,8191 8308,8062 8317,8256 8326,8127 8335,8127 8344,8127 8363,8127 8372,8127 8381,7998 8391,7998 8399,7998 8409,7934 8418,7805 8426,7934 8435,7805 8445,7805 8454,7676 8463,7805 8472,7741 8481,7741 8491,7676 8499,7805 8509,7741 8527,7676 8536,7805 8546,7676 8555,7676 8564,7676 8581,7547 8591,7612 8599,7483 8609,7483 8618,7226 8627,7097 8636,6775 8646,6582 8655,6260 8664,6067 8673,5874 8682,5745 8691,5616 8700,5552 8719,5616 8728,5616 8736,5810 8746,5874 8754,6067 8764,6131 8773,6389 8783,6518 8791,6775 8799,6904 8807,7161 8823,7290 8830,7483 8838,7483 8846,7612 8854,7676 8862,7741 8877,7676 8885,7805 8892,7676 8900,7869 8908,7869 8931,7934 8939,7998 8947,7869 8955,7998 8963,7934 8970,8062 8986,7998 8994,8062 9002,8127 9010,8256 9017,8127 9023,8256"/>
 <path fill="none" stroke="rgb(0,69,134)" stroke-linejoin="round" d="M 9030,8256 L 9041,8127 9056,8062 9063,8127 9071,8127 9087,8127 9095,7998 9110,7869 9118,7998 9126,7869 9142,7869 9150,7741 9157,7869 9165,7741 9181,7676 9197,7741 9203,7612 9219,7612 9227,7547 9235,7612 9250,7676 9258,7547 9266,7612 9274,7547 9282,7612 9290,7483 9305,7612 9313,7547 9321,7483 9329,7483 9337,7354 9352,7226 9359,7033 9367,6839 9375,6646 9383,6260 9390,6196 9406,5874 9414,5810 9422,5552 9430,5616 9437,5488 9445,5552 9461,5552 9469,5745 9477,5810 9484,5938 9492,6003 9500,6196 9515,6389 9523,6646 9530,6775 9538,6968 9546,7097 9554,7290 9570,7354 9578,7483 9585,7547 9593,7676 9601,7612 9617,7741 9632,7869 9640,7805 9648,7869 9656,7805 9671,7934 9686,7998 9694,7934 9702,8127 9710,7998 9725,8062 9733,8127 9741,8191 9749,7998 9757,8127 9765,8062 9780,8256 9788,7998 9796,8127 9812,8062 9818,7998 9834,8062 9842,7869 9850,7998 9858,7805 9865,7869 9873,7805 9889,7741 9905,7741 9912,7676 9920,7805 9936,7612 9944,7676 9952,7612 9959,7676 9967,7612 9974,7741 9990,7612 9998,7676 10005,7547 10013,7676 10021,7612 10029,7547 10045,7547 10052,7612 10060,7354 10068,7483 10076,7226 10084,7097 10099,6839 10107,6646 10115,6324 10123,6131 10130,5938 10138,5810 10153,5681 10161,5616 10169,5552 10177,5681 10200,5874 10208,5938 10216,6131 10224,6196 10232,6453 10239,6582 10255,6839 10263,6839 10271,7097 10279,7290 10285,7419 10293,7354 10309,7483 10317,7547 10325,7676 10332,7612 10340,7676 10364,7741 10372,7676 10380,7869 10395,7869 10403,7934 10419,8062 10427,7998 10434,8127 10449,8062 10457,8127 10473,8127 10480,8127 10488,8127 10496,8062 10504,8127 10520,8127 10535,7998 10543,8062 10551,7934 10559,7998 10574,7869 10582,7998 10589,7805 10597,7869 10605,7741 10613,7741 10628,7676 10636,7741 10644,7676 10652,7741 10660,7612 10667,7741 10683,7612 10691,7676 10699,7612 10707,7741 10714,7612 10722,7805 10738,7612 10745,7676 10753,7612 10768,7483 10784,7483 10792,7290 10800,7226 10807,6904 10815,6711 10823,6453 10839,6324 10847,6003 10862,5810 10878,5810 10894,5810 10900,5810 10908,5938 10916,6067 10924,6260 10932,6324 10947,6646 10955,6711 10963,6968 10971,7033 10979,7226 10987,7290 11002,7483 11010,7419 11018,7547 11026,7612 11034,7676 11041,7676 11056,7676 11064,7612 11072,7676 11080,7612 11087,7805 11103,7741 11111,7805 11119,7869 11135,7869 11142,7934 11158,7869 11166,7998 11174,7998 11189,7934 11197,7998 11212,7934 11220,7998 11228,7869 11235,7998 11243,7869 11251,7934 11267,7869 11275,7869 11282,7741 11290,7869 11298,7741 11322,7612 11329,7676 11337,7676 11345,7612 11353,7612 11368,7676 11375,7612 11383,7741 11391,7612 11407,7612 11422,7676 11430,7612 11438,7676 11446,7547 11454,7612 11462,7483 11477,7419 11485,7161 11493,7097 11501,6775 11509,6711 11516,6453 11531,6324 11539,6067 11547,6131 11555,6003 11562,5938 11570,5938 11586,6131 11602,6260 11609,6324 11617,6453 11625,6518 11641,6711 11649,6839 11656,7033 11664,7097 11671,7290 11687,7290 11695,7483 11710,7547 11718,7547 11726,7676 11742,7547 11749,7612 11765,7612 11781,7741 11796,7676 11804,7869 11812,7741 11820,7869 11835,7869 11850,7805 11858,8062 11866,7934 11874,7998 11882,7934 11889,7998 11905,7998 11913,7998 11929,7998 11937,7869 11952,7934 11960,7869 11968,7805 11976,7741 11983,7805 11990,7676 12006,7612 12014,7483 12022,7612 12030,7483 12037,7547 12045,7483 12061,7483 12069,7419 12077,7483 12084,7419 12092,7419 12116,7354 12131,7419 12138,7290 12146,7354 12154,7226 12170,7290 12177,7097 12185,6968 12193,6839 12201,6582 12209,6324 12224,6260 12232,6003 12240,5938 12248,5810 12256,5874 12271,5681 12279,5810 12294,5938 12310,6131 12325,6196 12333,6389 12341,6453 12349,6711 12357,6775 12364,6968 12380,7033 12388,7290 12396,7354 12404,7483 12411,7419 12419,7547 12435,7483 12443,7612 12450,7547 12457,7676 12465,7612 12473,7869 12489,7741 12504,7869 12512,7869 12536,7934 12544,7934 12559,7869 12567,7998 12575,7805 12591,7998 12598,7869 12613,7805 12621,7869 12629,7741 12644,7869 12652,7741 12668,7676 12676,7676 12684,7547 12699,7612 12707,7483 12723,7419 12731,7419 12753,7483 12761,7290 12769,7354 12777,7354 12785,7419 12792,7354 12808,7483 12816,7354 12824,7419 12832,7354 12839,7419 12855,7226 12871,6968 12886,6775 12894,6646 12909,6324 12925,6067 12940,6003 12964,6003 12972,6067 12979,6067 12987,6260 12995,6260 13003,6389 13019,6518 13026,6711 13034,6775 13042,6968 13050,7033 13058,7226 13072,7226 13080,7354 13088,7354 13096,7483 13104,7483 13119,7483 13127,7483 13143,7483 13151,7612 13159,7547 13174,7612 13182,7547 13190,7612 13198,7741 13206,7805 13213,7741 13228,7869 13236,7869 13252,7805 13259,7934 13267,7869 13283,7998 13291,7934 13306,7869 13322,7869 13338,7934 13346,7741 13353,7869 13361,7741 13369,7805 13376,7676 13392,7676 13399,7741 13415,7741 13439,7612 13446,7676 13454,7612 13470,7547 13478,7612 13494,7483 13501,7483 13517,7419 13525,7290 13532,7226 13547,7033 13555,6839 13563,6646 13571,6646 13579,6260 13587,6196 13602,6067 13610,6067 13618,5938 13626,6067 13634,6003 13641,6131 13657,6131 13665,6324 13680,6582 13687,6582 13703,6839 13719,7033 13727,7097 13734,7226 13742,7290 13758,7419 13766,7483 13774,7483 13789,7483 13797,7483 13813,7547 13828,7612 13843,7676 13851,7612 13867,7676 13874,7741 13882,7805 13890,7741 13898,7805 13906,7869 13921,7998 13929,7869 13937,7869 13945,7934 13953,7998 13961,7869 13976,7934 13984,7869 13991,7869 13999,7741 14007,7805 14022,7547 14030,7612 14038,7547 14046,7612 14054,7483 14061,7547 14077,7419 14085,7483 14101,7483 14108,7354 14116,7354 14132,7419 14140,7354 14154,7354 14170,7354 14186,7161 14194,7097 14201,6968 14209,6839 14217,6646 14225,6582 14241,6389 14249,6324 14256,6196 14264,6131 14272,6067 14288,6260 14296,6067 14302,6324 14318,6453 14342,6711 14349,6775 14357,6968 14373,7226 14396,7354 14404,7290 14412,7483 14420,7354 14428,7483 14436,7354 14451,7483 14458,7483 14466,7483 14482,7547 14505,7676 14513,7547 14521,7676 14529,7612 14536,7676 14560,7869 14568,7741 14576,7805 14591,7934 14607,7741 14614,7934 14622,7869 14629,7869 14637,7741 14645,7869 14661,7741 14669,7869 14676,7676 14684,7741 14692,7676 14700,7741 14716,7612 14723,7741 14731,7612 14739,7676 14747,7612 14755,7612 14769,7547 14777,7483 14785,7419 14793,7483 14801,7419 14809,7483 14824,7354 14832,7419 14840,7419 14848,7354 14856,7354 14871,7354 14879,7226 14887,7161 14895,7033 14903,6904 14910,6711 14925,6646 14933,6389 14941,6324 14949,6131 14956,6067 14964,5938 14980,6003 14988,5938 15003,6003 15011,6067 15019,6196 15035,6324 15043,6324 15051,6453 15058,6582 15066,6839 15073,6904 15089,7033 15097,7097 15104,7226 15112,7354 15128,7419 15144,7483 15151,7547 15167,7612 15191,7547 15198,7741 15206,7741 15214,7805 15222,7805 15229,7869 15244,7805 15252,7869 15260,7805 15268,7869 15276,7805 15284,7934 15299,7869 15307,7934 15315,7805 15323,7934 15331,7869 15338,7805 15354,7805 15362,7741 15370,7676 15378,7805 15384,7612 15408,7547 15416,7612 15424,7547 15439,7483 15455,7612 15463,7483 15471,7612 15478,7483 15486,7547 15494,7483 15510,7547 15518,7483 15525,7483 15533,7483 15540,7547 15548,7483 15564,7547 15571,7483 15579,7547 15587,7483 15603,7354 15618,7483 15626,7354 15634,7226 15642,7097 15650,6968 15658,6775 15673,6711 15681,6324 15689,6260 15696,6003 15704,5874 15711,5745 15727,5874 15735,5681 15743,5745 15751,5681 15758,5938 15774,5938 15782,6196 15790,6131 15798,6389 15806,6389 15806,6646 15806,6839 15806,6904"/>
 <text class="TextShape"><tspan class="TextParagraph" font-family="Liberation Sans, sans-serif" font-size="353px" font-weight="400"><tspan class="TextPosition" x="0" y="8824"><tspan fill="rgb(0,0,0)" stroke="none">-10</tspan></tspan></tspan></text>
 <text class="TextShape"><tspan class="TextParagraph" font-family="Liberation Sans, sans-serif" font-size="353px" font-weight="400"><tspan class="TextPosition" x="1649" y="8824"><tspan fill="rgb(0,0,0)" stroke="none">-8</tspan></tspan></tspan></text>
 <text class="TextShape"><tspan class="TextParagraph" font-family="Liberation Sans, sans-serif" font-size="353px" font-weight="400"><tspan class="TextPosition" x="3206" y="8824"><tspan fill="rgb(0,0,0)" stroke="none">-6</tspan></tspan></tspan></text>
 <text class="TextShape"><tspan class="TextParagraph" font-family="Liberation Sans, sans-serif" font-size="353px" font-weight="400"><tspan class="TextPosition" x="4763" y="8824"><tspan fill="rgb(0,0,0)" stroke="none">-4</tspan></tspan></tspan></text>
 <text class="TextShape"><tspan class="TextParagraph" font-family="Liberation Sans, sans-serif" font-size="353px" font-weight="400"><tspan class="TextPosition" x="6320" y="8824"><tspan fill="rgb(0,0,0)" stroke="none">-2</tspan></tspan></tspan></text>
 <text class="TextShape"><tspan class="TextParagraph" font-family="Liberation Sans, sans-serif" font-size="353px" font-weight="400"><tspan class="TextPosition" x="7929" y="8824"><tspan fill="rgb(0,0,0)" stroke="none">0</tspan></tspan></tspan></text>
 <text class="TextShape"><tspan class="TextParagraph" font-family="Liberation Sans, sans-serif" font-size="353px" font-weight="400"><tspan class="TextPosition" x="9486" y="8824"><tspan fill="rgb(0,0,0)" stroke="none">2</tspan></tspan></tspan></text>
 <text class="TextShape"><tspan class="TextParagraph" font-family="Liberation Sans, sans-serif" font-size="353px" font-weight="400"><tspan class="TextPosition" x="11043" y="8824"><tspan fill="rgb(0,0,0)" stroke="none">4</tspan></tspan></tspan></text>
 <text class="TextShape"><tspan class="TextParagraph" font-family="Liberation Sans, sans-serif" font-size="353px" font-weight="400"><tspan class="TextPosition" x="12600" y="8824"><tspan fill="rgb(0,0,0)" stroke="none">6</tspan></tspan></tspan></text>
 <text class="TextShape"><tspan class="TextParagraph" font-family="Liberation Sans, sans-serif" font-size="353px" font-weight="400"><tspan class="TextPosition" x="14157" y="8824"><tspan fill="rgb(0,0,0)" stroke="none">8</tspan></tspan></tspan></text>
 <text class="TextShape"><tspan class="TextParagraph" font-family="Liberation Sans, sans-serif" font-size="353px" font-weight="400"><tspan class="TextPosition" x="15622" y="8824"><tspan fill="rgb(0,0,0)" stroke="none">10</tspan></tspan></tspan></text>
 <path fill="none" stroke="rgb(0,69,134)" stroke-linejoin="round" d="M 13069,4177 L 13864,4177"/>
 <path fill="none" stroke="rgb(255,66,14)" stroke-linejoin="round" d="M 13069,4674 L 13864,4674"/>
 <text class="TextShape"><tspan class="TextParagraph" font-family="Liberation Sans, sans-serif" font-size="353px" font-weight="400"><tspan class="TextPosition" x="13964" y="4297"><tspan fill="rgb(0,0,0)" stroke="none">Pleth </tspan></tspan></tspan></text>
 <text class="TextShape"><tspan class="TextParagraph" font-family="Liberation Sans, sans-serif" font-size="353px" font-weight="400"><tspan class="TextPosition" x="13964" y="4794"><tspan fill="rgb(0,0,0)" stroke="none">ECG </tspan></tspan></tspan></text>
</svg>