<?xml version="1.0" encoding="UTF-8"?>
<!DOCTYPE svg PUBLIC "-//W3C//DTD SVG 1.1//EN" "http://www.w3.org/Graphics/SVG/1.1/DTD/svg11.dtd">
<svg width="174mm" height="101mm" viewBox="0 0 17400 10100" version="1.1" baseProfile="tiny" xmlns="http://www.w3.org/2000/svg" stroke-width="28.222" stroke-linejoin="round" xml:space="preserve">
 <path fill="rgb(255,255,255)" stroke="none" d="M 8696,10079 L 0,10079 0,0 17391,0 17391,10079 8696,10079 Z"/>
 <path fill="rgb(255,255,255)" stroke="none" d="M 9025,8096 L 1778,8096 1778,939 16272,939 16272,8096 9025,8096 Z"/>
 <path fill="none" stroke="rgb(135,135,135)" stroke-width="26" stroke-linejoin="round" d="M 1778,937 L 1778,8094"/>
 <path fill="none" stroke="rgb(135,135,135)" stroke-width="26" stroke-linejoin="round" d="M 3589,937 L 3589,8094"/>
 <path fill="none" stroke="rgb(135,135,135)" stroke-width="26" stroke-linejoin="round" d="M 5401,937 L 5401,8094"/>
 <path fill="none" stroke="rgb(135,135,135)" stroke-width="26" stroke-linejoin="round" d="M 7213,937 L 7213,8094"/>
 <path fill="none" stroke="rgb(135,135,135)" stroke-width="26" stroke-linejoin="round" d="M 9024,937 L 9024,8094"/>
 <path fill="none" stroke="rgb(135,135,135)" stroke-width="26" stroke-linejoin="round" d="M 10836,937 L 10836,8094"/>
 <path fill="none" stroke="rgb(135,135,135)" stroke-width="26" stroke-linejoin="round" d="M 12648,937 L 12648,8094"/>
 <path fill="none" stroke="rgb(135,135,135)" stroke-width="26" stroke-linejoin="round" d="M 14460,937 L 14460,8094"/>
 <path fill="none" stroke="rgb(135,135,135)" stroke-width="26" stroke-linejoin="round" d="M 16272,937 L 16272,8094"/>
 <path fill="none" stroke="rgb(183,183,183)" stroke-width="26" stroke-linejoin="round" d="M 2683,937 L 2683,8094"/>
 <path fill="none" stroke="rgb(183,183,183)" stroke-width="26" stroke-linejoin="round" d="M 4495,937 L 4495,8094"/>
 <path fill="none" stroke="rgb(183,183,183)" stroke-width="26" stroke-linejoin="round" d="M 6307,937 L 6307,8094"/>
 <path fill="none" stroke="rgb(183,183,183)" stroke-width="26" stroke-linejoin="round" d="M 8119,937 L 8119,8094"/>
 <path fill="none" stroke="rgb(183,183,183)" stroke-width="26" stroke-linejoin="round" d="M 9930,937 L 9930,8094"/>
 <path fill="none" stroke="rgb(183,183,183)" stroke-width="26" stroke-linejoin="round" d="M 11742,937 L 11742,8094"/>
 <path fill="none" stroke="rgb(183,183,183)" stroke-width="26" stroke-linejoin="round" d="M 13554,937 L 13554,8094"/>
 <path fill="none" stroke="rgb(183,183,183)" stroke-width="26" stroke-linejoin="round" d="M 15366,937 L 15366,8094"/>
 <path fill="none" stroke="rgb(135,135,135)" stroke-width="26" stroke-linejoin="round" d="M 16272,8094 L 1778,8094"/>
 <path fill="none" stroke="rgb(135,135,135)" stroke-width="26" stroke-linejoin="round" d="M 16272,2975 L 1778,2975"/>
 <path fill="none" stroke="rgb(183,183,183)" stroke-width="26" stroke-linejoin="round" d="M 16272,6553 L 1778,6553"/>
 <path fill="none" stroke="rgb(183,183,183)" stroke-width="26" stroke-linejoin="round" d="M 16272,5651 L 1778,5651"/>
 <path fill="none" stroke="rgb(183,183,183)" stroke-width="26" stroke-linejoin="round" d="M 16272,5013 L 1778,5013"/>
 <path fill="none" stroke="rgb(183,183,183)" stroke-width="26" stroke-linejoin="round" d="M 16272,4516 L 1778,4516"/>
 <path fill="none" stroke="rgb(183,183,183)" stroke-width="26" stroke-linejoin="round" d="M 16272,4111 L 1778,4111"/>
 <path fill="none" stroke="rgb(183,183,183)" stroke-width="26" stroke-linejoin="round" d="M 16272,3768 L 1778,3768"/>
 <path fill="none" stroke="rgb(183,183,183)" stroke-width="26" stroke-linejoin="round" d="M 16272,3471 L 1778,3471"/>
 <path fill="none" stroke="rgb(183,183,183)" stroke-width="26" stroke-linejoin="round" d="M 16272,3209 L 1778,3209"/>
 <path fill="none" stroke="rgb(183,183,183)" stroke-width="26" stroke-linejoin="round" d="M 16272,1434 L 1778,1434"/>
 <path fill="none" stroke="rgb(135,135,135)" stroke-width="26" stroke-linejoin="round" d="M 1778,8244 L 1778,8094"/>
 <path fill="none" stroke="rgb(135,135,135)" stroke-width="26" stroke-linejoin="round" d="M 3589,8244 L 3589,8094"/>
 <path fill="none" stroke="rgb(135,135,135)" stroke-width="26" stroke-linejoin="round" d="M 5401,8244 L 5401,8094"/>
 <path fill="none" stroke="rgb(135,135,135)" stroke-width="26" stroke-linejoin="round" d="M 7213,8244 L 7213,8094"/>
 <path fill="none" stroke="rgb(135,135,135)" stroke-width="26" stroke-linejoin="round" d="M 9024,8244 L 9024,8094"/>
 <path fill="none" stroke="rgb(135,135,135)" stroke-width="26" stroke-linejoin="round" d="M 10836,8244 L 10836,8094"/>
 <path fill="none" stroke="rgb(135,135,135)" stroke-width="26" stroke-linejoin="round" d="M 12648,8244 L 12648,8094"/>
 <path fill="none" stroke="rgb(135,135,135)" stroke-width="26" stroke-linejoin="round" d="M 14460,8244 L 14460,8094"/>
 <path fill="none" stroke="rgb(135,135,135)" stroke-width="26" stroke-linejoin="round" d="M 16272,8244 L 16272,8094"/>
 <path fill="none" stroke="rgb(135,135,135)" stroke-width="26" stroke-linejoin="round" d="M 1778,8094 L 16272,8094"/>
 <path fill="none" stroke="rgb(190,75,72)" stroke-linejoin="round" d="M 2914,937 L 2915,939 2926,954 2937,968 2941,973 2944,978 2955,993 2966,1008 2970,1013 2973,1017 2984,1031 2995,1044 3006,1057 3010,1061 3020,1071 3024,1075 3035,1084 3039,1087 3049,1096 3064,1108 3068,1110 3078,1119 3086,1125 3093,1131 3100,1137 3107,1143 3115,1149 3118,1152 3129,1162 3133,1165 3147,1178 3162,1191 3173,1201 3176,1204 3187,1214 3191,1217 3202,1227 3205,1230 3216,1240 3220,1243 3227,1250 3234,1256 3241,1263 3249,1269 3256,1276 3263,1283 3270,1289 3278,1296 3285,1303 3292,1310 3296,1313 3307,1323 3310,1327 3321,1337 3325,1340 3332,1347 3339,1354 3347,1361 3350,1364 3361,1375 3365,1378 3376,1389 3379,1392 3390,1403 3394,1406 3405,1416 3408,1420 3415,1427 3419,1430 3430,1440 3434,1443 3444,1453 3448,1456 3459,1466 3463,1469 3473,1478 3477,1481 3488,1490 3492,1493 3502,1502 3510,1508 3517,1514 3524,1520 3531,1527 3539,1533 3542,1536 3553,1545 3557,1549 3571,1561 3586,1574 3597,1584 3600,1587 3611,1596 3615,1600 3626,1609 3629,1613 3640,1622 3644,1625 3651,1632 3658,1639 3665,1645 3673,1652 3680,1658 3687,1665 3694,1672 3702,1678 3709,1685 3716,1692 3720,1695 3731,1705 3734,1708 3745,1719 3749,1722 3760,1732 3763,1735 3774,1746 3789,1760 3800,1770 3803,1774 3814,1784 3818,1788 3829,1799 3832,1802 3839,1809 3843,1813 3854,1824 3858,1827 3868,1838 3872,1841 3883,1851 3887,1855 3897,1865 3912,1877 3926,1890 3941,1902 3952,1912 3959,1918 3966,1924 3973,1930 3981,1936 3988,1942 3995,1948 4006,1957 4010,1960 4021,1969 4035,1981 4050,1993 4053,1996 4064,2006 4068,2009 4075,2015 4082,2021 4089,2028 4097,2034 4104,2040 4115,2050 4118,2053 4129,2062 4133,2065 4144,2075 4158,2088 4173,2101 4187,2114 4198,2124 4202,2127 4213,2137 4216,2140 4227,2150 4231,2153 4242,2163 4245,2166 4256,2176 4260,2180 4267,2187 4274,2193 4282,2200 4289,2207 4296,2214 4303,2220 4311,2227 4318,2234 4321,2238 4332,2248 4336,2252 4343,2259 4350,2266 4358,2273 4365,2280 4372,2287 4376,2290 4387,2300 4390,2304 4401,2314 4405,2318 4412,2325 4419,2332 4426,2338 4434,2345 4441,2352 4445,2355 4455,2365 4459,2368 4470,2378 4474,2381 4484,2390 4488,2394 4499,2403 4503,2406 4513,2415 4517,2418 4528,2428 4532,2431 4542,2441 4546,2444 4557,2453 4561,2457 4568,2463 4575,2470 4582,2476 4593,2486 4597,2489 4608,2499 4611,2502 4622,2512 4637,2525 4651,2539 4662,2549 4666,2552 4676,2562 4691,2576 4705,2590 4720,2603 4734,2617 4745,2628 4749,2631 4760,2642 4774,2656 4789,2670 4800,2680 4803,2684 4814,2695 4829,2709 4843,2723 4854,2734 4858,2738 4869,2749 4879,2760 4883,2764 4894,2775 4898,2779 4905,2786 4912,2794 4919,2802 4923,2806 4930,2813 4937,2821 4945,2828 4952,2836 4956,2840 4966,2851 4970,2854 4981,2865 4985,2869 4992,2876 4995,2879 5006,2889 5010,2893 5021,2902 5024,2906 5035,2915 5042,2921 5046,2924 5057,2933 5061,2936 5075,2947 5090,2958 5093,2961 5100,2966 5108,2972 5115,2977 5126,2986 5129,2989 5144,3000 5158,3012 5169,3021 5177,3027 5184,3033 5191,3038 5198,3044 5209,3053 5213,3056 5224,3065 5238,3077 5253,3089 5256,3092 5267,3101 5271,3104 5282,3113 5289,3119 5293,3122 5303,3132 5307,3135 5318,3144 5322,3147 5332,3156 5336,3159 5347,3169 5351,3172 5361,3181 5365,3184 5376,3194 5380,3197 5390,3207 5394,3210 5401,3216 5408,3223 5416,3230 5423,3236 5430,3243 5437,3250 5445,3256 5452,3263 5459,3270 5466,3277 5470,3280 5481,3290 5485,3294 5495,3304 5499,3307 5510,3318 5514,3321 5521,3328 5524,3332 5535,3342 5539,3346 5550,3356 5553,3360 5564,3370 5568,3374 5575,3381 5582,3388 5590,3395 5593,3399 5604,3409 5608,3413 5619,3424 5622,3428 5630,3435 5637,3442 5644,3449 5648,3453 5655,3460 5662,3467 5669,3474 5677,3481 5684,3488 5691,3494 5698,3501 5706,3507 5713,3513 5717,3516 5731,3529 5746,3541 5760,3553 5771,3562 5778,3568 5785,3574 5793,3580 5800,3587 5807,3593 5814,3599 5822,3606 5825,3609 5836,3619 5840,3622 5854,3635 5869,3648 5883,3661 5894,3670 5898,3674 5909,3684 5912,3687 5923,3697 5927,3700 5938,3710 5941,3713 5948,3720 5956,3727 5963,3733 5970,3740 5977,3747 5985,3754 5992,3761 5996,3764 6006,3774 6010,3778 6017,3785 6025,3791 6032,3798 6039,3805 6046,3812 6054,3819 6061,3826 6068,3833 6072,3837 6079,3844 6086,3851 6093,3858 6101,3865 6108,3872 6115,3879 6122,3886 6126,3889 6133,3896 6140,3903 6148,3910 6155,3917 6162,3924 6169,3931 6177,3938 6184,3945 6191,3952 6195,3955 6202,3962 6209,3969 6217,3976 6224,3984 6231,3991 6238,3998 6242,4001 6249,4009 6256,4016 6264,4023 6271,4030 6278,4037 6285,4044 6293,4052 6296,4055 6307,4066 6311,4070 6318,4077 6322,4081 6333,4092 6336,4096 6347,4108 6358,4121 6362,4125 6369,4134 6372,4139 6380,4148 6387,4158 6391,4163 6401,4178 6409,4189 6416,4200 6427,4218 6430,4224 6434,4230 6441,4241 6449,4253 6456,4264 6459,4269 6470,4283 6481,4294 6485,4297 6496,4304 6499,4306 6510,4308 6525,4308 6539,4305 6550,4302 6564,4300 6579,4298 6593,4298 6608,4299 6619,4299 6633,4300 6648,4301 6662,4301 6673,4301 6688,4301 6702,4301 6717,4302 6731,4303 6742,4303 6757,4304 6771,4304 6786,4303 6796,4301 6811,4297 6825,4291 6840,4282 6847,4276 6851,4273 6862,4262 6865,4258 6872,4250 6880,4241 6883,4236 6894,4222 6901,4212 6909,4202 6912,4197 6920,4188 6923,4183 6934,4170 6945,4157 6949,4153 6956,4144 6963,4136 6967,4132 6974,4124 6978,4119 6988,4106 6999,4093 7003,4088 7010,4078 7017,4068 7021,4063 7028,4053 7032,4048 7039,4037 7043,4032 7046,4026 7057,4009 7065,3998 7072,3986 7079,3974 7086,3963 7090,3957 7097,3945 7104,3933 7112,3921 7123,3904 7126,3899 7130,3893 7137,3882 7141,3877 7148,3867 7155,3856 7159,3851 7166,3841 7177,3825 7181,3820 7184,3814 7191,3802 7195,3796 7199,3789 7206,3775 7210,3768 7213,3760 7220,3743 7224,3735 7231,3716 7235,3707 7242,3689 7246,3679 7249,3670 7257,3652 7260,3643 7264,3635 7267,3627 7275,3611 7278,3604 7289,3587 7296,3578 7304,3571 7315,3564 7318,3563 7333,3558 7344,3556 7358,3554 7365,3552 7373,3549 7387,3544 7398,3539 7412,3533 7427,3528 7438,3525 7441,3525 7456,3524 7467,3524 7481,3525 7496,3526 7510,3528 7521,3529 7536,3531 7550,3534 7565,3539 7568,3541 7575,3544 7590,3553 7604,3563 7608,3566 7619,3575 7626,3582 7633,3588 7641,3595 7644,3599 7652,3606 7659,3613 7666,3620 7673,3627 7681,3635 7688,3642 7691,3646 7699,3653 7706,3661 7713,3668 7717,3672 7728,3683 7731,3687 7742,3698 7757,3713 7768,3725 7782,3740 7793,3752 7797,3755 7807,3767 7811,3771 7818,3779 7822,3783 7829,3791 7836,3799 7844,3807 7851,3815 7855,3819 7865,3831 7880,3847 7891,3859 7902,3871 7905,3875 7913,3884 7920,3892 7923,3896 7934,3909 7938,3913 7945,3921 7949,3925 7960,3938 7970,3951 7974,3955 7981,3964 7989,3972 7992,3977 7999,3985 8003,3990 8014,4003 8025,4016 8028,4020 8036,4029 8043,4038 8047,4042 8057,4056 8068,4069 8079,4083 8083,4087 8090,4096 8097,4105 8101,4110 8112,4123 8123,4137 8134,4151 8137,4156 8141,4161 8152,4175 8163,4189 8166,4194 8173,4204 8181,4214 8192,4228 8202,4243 8206,4247 8213,4257 8221,4266 8231,4279 8235,4283 8246,4296 8257,4308 8260,4312 8268,4320 8275,4328 8282,4335 8289,4343 8293,4347 8300,4355 8304,4359 8315,4371 8318,4375 8329,4387 8340,4400 8344,4404 8351,4412 8358,4421 8362,4425 8369,4433 8373,4438 8384,4450 8387,4455 8398,4467 8409,4480 8413,4485 8420,4493 8423,4498 8431,4506 8438,4515 8442,4519 8452,4533 8463,4546 8467,4551 8474,4560 8481,4569 8485,4573 8492,4582 8496,4587 8507,4600 8514,4609 8521,4618 8525,4622 8536,4635 8539,4640 8547,4648 8550,4652 8561,4665 8572,4677 8576,4682 8583,4690 8590,4698 8594,4702 8605,4713 8608,4717 8616,4725 8619,4728 8630,4740 8634,4744 8645,4755 8659,4770 8670,4781 8684,4797 8695,4808 8698,4812 8709,4824 8712,4828 8720,4836 8723,4840 8730,4848 8738,4857 8741,4861 8752,4873 8756,4877 8767,4890 8778,4902 8781,4906 8788,4914 8792,4918 8799,4926 8807,4934 8814,4942 8821,4949 8825,4953 8836,4964 8839,4968 8846,4975 8854,4982 8861,4988 8868,4995 8875,5001 8883,5008 8890,5014 8897,5020 8904,5025 8915,5034 8930,5044 8944,5056 8948,5058 8959,5067 8966,5073 8970,5076 8981,5085 8984,5088 8999,5100 9013,5112 9024,5121 9028,5124 9038,5133 9046,5139 9053,5145 9060,5150 9067,5156 9078,5163 9082,5165 9093,5172 9104,5177 9107,5178 9122,5183 9136,5187 9147,5189 9162,5192 9176,5196 9191,5199 9202,5202 9205,5204 9216,5207 9231,5211 9245,5216 9260,5220 9270,5223 9285,5227 9292,5229 9299,5231 9314,5235 9328,5239 9339,5242 9354,5246 9368,5250 9383,5254 9390,5256 9394,5257 9408,5260 9423,5263 9437,5267 9448,5269 9462,5272 9477,5275 9491,5279 9506,5282 9517,5284 9531,5288 9546,5291 9560,5294 9564,5295 9571,5297 9586,5300 9600,5304 9615,5307 9618,5308 9629,5311 9640,5313 9655,5317 9669,5320 9676,5321 9684,5322 9694,5324 9709,5326 9723,5327 9738,5328 9749,5329 9763,5329 9778,5329 9792,5329 9807,5329 9818,5329 9832,5329 9847,5329 9861,5329 9872,5329 9886,5329 9901,5330 9915,5330 9930,5330 9941,5330 9955,5330 9970,5330 9984,5330 9995,5330 10010,5330 10024,5330 10039,5330 10053,5330 10064,5331 10079,5331 10093,5331 10108,5331 10118,5331 10133,5331 10147,5331 10162,5331 10173,5331 10187,5331 10202,5331 10216,5331 10231,5332 10242,5332 10256,5332 10271,5332 10285,5332 10296,5332 10310,5332 10325,5332 10339,5332 10354,5332 10365,5332 10379,5333 10394,5333 10408,5333 10419,5333 10434,5333 10448,5333 10463,5333 10473,5333 10488,5333 10502,5333 10517,5333 10531,5333 10542,5334 10557,5334 10571,5334 10586,5334 10597,5334 10611,5334 10615,5334 10626,5334 10640,5335 10655,5335 10666,5335 10680,5335 10695,5335 10709,5335 10720,5335 10734,5335 10749,5336 10763,5336 10778,5336 10789,5336 10803,5336 10818,5336 10832,5336 10843,5336 10858,5337 10872,5337 10887,5337 10897,5337 10912,5337 10926,5337 10941,5337 10955,5337 10966,5338 10981,5338 10995,5338 11010,5339 11021,5339 11035,5339 11050,5339 11064,5338 11079,5337 11090,5336 11104,5335 11111,5334 11119,5333 11133,5332 11144,5331 11158,5330 11173,5329 11187,5328 11198,5327 11213,5326 11227,5324 11242,5323 11256,5322 11267,5321 11282,5320 11296,5319 11311,5318 11321,5317 11336,5316 11350,5314 11365,5313 11379,5312 11390,5311 11405,5310 11419,5309 11434,5308 11445,5307 11459,5306 11474,5305 11488,5303 11503,5301 11514,5299 11528,5296 11539,5294 11543,5294 11557,5291 11568,5289 11582,5286 11597,5284 11611,5281 11622,5279 11637,5277 11651,5274 11666,5271 11680,5269 11684,5268 11691,5267 11706,5264 11720,5262 11735,5259 11745,5257 11760,5255 11774,5252 11789,5250 11803,5247 11814,5245 11829,5243 11836,5241 11843,5240 11858,5238 11869,5236 11883,5233 11898,5230 11909,5229 11912,5228 11923,5226 11937,5224 11952,5222 11966,5220 11981,5218 11992,5216 11999,5215 12006,5214 12021,5212 12035,5210 12046,5209 12061,5207 12075,5205 12090,5203 12093,5202 12104,5200 12115,5199 12130,5197 12144,5195 12159,5193 12169,5191 12184,5189 12188,5189 12198,5187 12213,5185 12227,5183 12238,5181 12253,5179 12267,5177 12278,5175 12282,5175 12293,5173 12307,5171 12322,5169 12336,5167 12347,5165 12361,5163 12365,5162 12376,5161 12390,5159 12405,5156 12416,5155 12430,5153 12445,5150 12452,5149 12459,5148 12470,5147 12485,5145 12499,5142 12514,5140 12528,5138 12539,5137 12543,5136 12554,5134 12568,5132 12583,5130 12593,5128 12608,5126 12622,5124 12633,5123 12637,5122 12648,5120 12662,5118 12677,5116 12691,5115 12706,5113 12717,5111 12731,5110 12735,5110 12746,5108 12760,5107 12771,5106 12785,5105 12800,5103 12814,5102 12829,5101 12840,5100 12854,5098 12869,5097 12876,5096 12883,5096 12894,5095 12909,5093 12923,5092 12938,5090 12952,5089 12963,5088 12978,5087 12992,5085 13007,5084 13014,5083 13017,5083 13032,5081 13046,5080 13061,5079 13072,5078 13086,5077 13101,5075 13115,5074 13130,5073 13141,5073 13155,5073 13170,5072 13184,5073 13195,5073 13209,5073 13224,5074 13238,5074 13253,5074 13264,5074 13278,5074 13293,5074 13307,5075 13318,5075 13333,5075 13347,5075 13362,5075 13373,5076 13387,5076 13401,5076 13416,5076 13430,5076 13441,5076 13456,5076 13470,5076 13485,5076 13496,5076 13510,5077 13525,5078 13539,5080 13554,5083 13557,5083 13565,5085 13579,5088 13594,5091 13608,5093 13619,5095 13626,5097 13633,5098 13648,5100 13662,5102 13677,5104 13688,5105 13702,5107 13717,5110 13731,5114 13742,5117 13757,5122 13760,5124 13771,5129 13786,5136 13796,5142 13811,5151 13825,5159 13833,5163 13840,5168 13854,5177 13865,5183 13876,5190 13880,5192 13894,5201 13898,5204 13909,5210 13920,5217 13934,5226 13941,5230 13949,5235 13963,5244 13978,5253 13981,5255 13989,5260 14003,5269 14018,5278 14025,5283 14032,5288 14043,5295 14047,5297 14057,5304 14065,5309 14072,5313 14086,5323 14097,5330 14108,5336 14112,5339 14126,5348 14141,5357 14148,5362 14155,5367 14166,5375 14181,5386 14184,5388 14195,5397 14202,5403 14210,5409 14217,5415 14220,5419 14231,5428 14235,5431 14246,5441 14249,5444 14260,5454 14264,5457 14275,5467 14278,5471 14289,5481 14304,5494 14318,5508 14333,5521 14344,5531 14347,5535 14358,5545 14362,5549 14373,5559 14387,5573 14402,5587 14413,5597 14416,5600 14427,5611 14431,5614 14442,5625 14456,5640 14467,5650 14470,5654 14481,5665 14496,5680 14510,5694 14521,5704 14536,5717 14539,5720 14550,5729 14554,5732 14565,5740 14572,5746 14579,5751 14590,5759 14605,5770 14608,5772 14619,5781 14623,5784 14634,5792 14641,5798 14644,5801 14659,5812 14673,5824 14688,5836 14692,5839 14702,5847 14706,5850 14713,5856 14724,5865 14728,5868 14739,5877 14742,5880 14757,5892 14768,5900 14771,5903 14782,5913 14786,5916 14797,5925 14804,5931 14811,5937 14818,5943 14822,5946 14833,5955 14836,5958 14851,5971 14865,5983 14880,5996 14891,6005 14894,6008 14905,6017 14913,6023 14920,6030 14927,6036 14934,6043 14942,6050 14945,6054 14952,6061 14960,6069 14967,6078 14974,6087 14978,6091 14985,6101 14989,6106 14996,6116 15003,6126 15007,6131 15014,6142 15025,6158 15029,6163 15032,6168 15043,6184 15050,6195 15058,6205 15061,6210 15068,6220 15079,6236 15083,6241 15087,6247 15097,6263 15105,6274 15112,6285 15116,6290 15123,6302 15126,6308 15130,6314 15137,6325 15148,6343 15152,6348 15155,6354 15163,6365 15166,6371 15174,6381 15181,6391 15192,6405 15202,6417 15206,6421 15217,6433 15221,6436 15231,6446 15235,6450 15246,6460 15260,6473 15271,6483 15275,6487 15286,6497 15289,6501 15300,6512 15304,6515 15315,6526 15326,6537 15329,6540 15340,6551 15344,6555 15355,6565 15358,6569 15366,6576 15369,6580 15380,6591 15384,6595 15395,6606 15398,6610 15405,6617 15413,6625 15416,6629 15427,6641 15431,6645 15438,6654 15442,6658 15453,6671 15463,6684 15467,6688 15474,6697 15482,6706 15485,6710 15492,6719 15496,6724 15507,6738 15518,6752 15521,6756 15525,6761 15536,6775 15547,6790 15558,6804 15561,6809 15568,6818 15576,6828 15587,6842 15590,6847 15597,6857 15605,6866 15616,6881 15626,6896 15630,6901 15634,6906 15645,6921 15655,6936 15659,6941 15663,6946 15670,6956 15674,6961 15684,6977 15692,6987 15699,6997 15703,7003 15710,7013 15713,7018 15721,7029 15728,7039 15739,7055 15746,7066 15753,7077 15757,7082 15764,7093 15768,7098 15775,7109 15782,7120 15790,7131 15793,7137 15800,7148 15808,7159 15819,7176 15822,7181 15826,7187 15833,7198 15837,7204 15844,7215 15851,7227 15858,7238 15862,7244 15866,7250 15877,7267 15884,7279 15891,7291 15898,7303 15906,7315 15909,7321 15916,7333 15924,7345 15931,7357 15938,7369 15945,7382 15956,7400 15960,7407 15963,7413 15971,7425 15978,7438 15985,7451 15992,7463 16000,7476 16007,7489 16014,7502 16021,7515 16029,7528 16036,7541 16040,7548 16043,7555 16050,7568 16054,7575 16058,7582 16065,7595 16069,7602 16072,7609 16079,7622 16083,7629 16087,7636 16094,7650 16101,7664 16108,7678 16112,7685 16119,7699 16123,7707 16127,7714 16134,7728 16137,7735 16141,7742 16148,7757 16152,7764 16156,7772 16159,7779 16163,7786 16166,7794 16174,7809 16177,7816 16181,7824 16185,7831 16192,7846 16199,7862 16206,7877 16210,7885 16217,7901 16224,7916 16228,7924 16232,7932 16235,7940 16243,7956 16246,7964 16253,7980 16261,7996 16264,8004 16272,8020"/>
 <path fill="none" stroke="rgb(74,126,187)" stroke-linejoin="round" d="M 1778,1930 L 1781,1959 1785,1987 1788,2013 1792,2037 1796,2060 1799,2082 1803,2102 1806,2122 1810,2141 1814,2159 1817,2177 1821,2194 1825,2211 1828,2228 1832,2246 1835,2263 1839,2281 1843,2299 1846,2318 1850,2338 1854,2358 1857,2380 1861,2402 1864,2425 1868,2449 1872,2474 1875,2498 1879,2524 1883,2550 1886,2576 1890,2602 1893,2628 1897,2655 1901,2682 1904,2708 1908,2734 1912,2761 1915,2786 1919,2812 1922,2837 1926,2862 1930,2886 1933,2910 1937,2933 1941,2955 1944,2977 1948,2999 1951,3020 1955,3040 1959,3060 1962,3079 1966,3097 1970,3115 1973,3133 1977,3149 1980,3165 1984,3181 1988,3195 1991,3209 1995,3223 1999,3235 2002,3247 2006,3259 2009,3270 2013,3280 2017,3290 2024,3309 2028,3317 2035,3334 2038,3342 2046,3358 2053,3374 2057,3382 2064,3398 2067,3406 2071,3415 2075,3423 2082,3442 2086,3451 2089,3461 2093,3470 2096,3480 2100,3490 2104,3500 2107,3511 2111,3521 2115,3532 2118,3542 2122,3553 2129,3574 2133,3585 2136,3595 2140,3606 2147,3627 2151,3638 2154,3649 2158,3659 2162,3670 2165,3681 2169,3692 2172,3702 2176,3713 2183,3735 2187,3746 2191,3757 2194,3768 2198,3780 2201,3791 2209,3814 2212,3826 2216,3837 2220,3849 2223,3861 2227,3873 2230,3885 2234,3898 2238,3910 2245,3935 2249,3947 2252,3959 2256,3972 2259,3984 2263,3996 2267,4009 2270,4021 2274,4033 2278,4045 2281,4057 2285,4069 2288,4081 2296,4104 2299,4116 2303,4127 2307,4139 2310,4150 2314,4161 2321,4183 2325,4194 2328,4204 2332,4215 2339,4235 2343,4245 2346,4255 2354,4275 2357,4284 2361,4294 2368,4312 2372,4321 2379,4339 2383,4348 2390,4365 2394,4373 2401,4390 2404,4399 2408,4408 2412,4416 2415,4425 2423,4442 2426,4451 2433,4468 2437,4477 2444,4495 2448,4505 2455,4523 2459,4533 2462,4542 2466,4552 2470,4561 2473,4571 2477,4581 2481,4590 2484,4600 2488,4610 2491,4620 2495,4630 2499,4639 2502,4649 2509,4669 2513,4679 2517,4689 2524,4709 2528,4720 2531,4730 2538,4750 2542,4761 2546,4771 2549,4781 2557,4803 2560,4813 2564,4824 2567,4835 2571,4846 2575,4857 2578,4868 2582,4879 2586,4891 2589,4902 2593,4914 2600,4937 2604,4948 2607,4960 2611,4972 2615,4983 2618,4995 2622,5006 2625,5018 2629,5030 2633,5040 2636,5051 2640,5063 2644,5074 2647,5085 2654,5107 2658,5118 2662,5129 2665,5140 2669,5150 2676,5171 2680,5181 2683,5191 2691,5211 2694,5221 2698,5230 2705,5249 2709,5258 2716,5276 2720,5285 2723,5293 2727,5302 2731,5310 2738,5326 2741,5334 2749,5350 2756,5366 2763,5381 2767,5389 2774,5404 2778,5412 2781,5420 2785,5428 2792,5444 2799,5460 2803,5468 2807,5476 2810,5484 2814,5493 2818,5501 2821,5510 2828,5527 2832,5536 2839,5553 2843,5562 2847,5570 2850,5579 2854,5588 2861,5606 2865,5615 2872,5632 2875,5641 2883,5659 2886,5668 2894,5686 2897,5695 2901,5705 2908,5723 2912,5732 2915,5742 2919,5751 2923,5761 2926,5771 2933,5790 2937,5800 2941,5810 2948,5830 2952,5841 2955,5851 2962,5872 2966,5882 2970,5892 2973,5903 2981,5923 2984,5934 2988,5944 2995,5964 2999,5974 3002,5983 3010,6002 3013,6012 3020,6030 3024,6038 3031,6056 3035,6064 3039,6072 3042,6080 3046,6087 3049,6095 3053,6102 3060,6116 3064,6123 3068,6129 3075,6142 3078,6148 3082,6153 3093,6169 3104,6183 3107,6188 3115,6196 3118,6200 3126,6209 3133,6216 3136,6220 3147,6232 3151,6236 3162,6249 3173,6262 3184,6275 3187,6280 3194,6289 3202,6298 3205,6303 3213,6312 3216,6317 3223,6326 3227,6331 3234,6340 3241,6350 3245,6354 3256,6368 3263,6378 3270,6387 3274,6392 3285,6406 3296,6421 3303,6431 3310,6440 3314,6445 3325,6460 3332,6471 3339,6481 3343,6486 3350,6495 3354,6500 3361,6510 3365,6515 3372,6524 3379,6534 3383,6538 3394,6552 3405,6564 3408,6569 3415,6577 3419,6581 3430,6592 3434,6596 3441,6604 3448,6611 3455,6618 3463,6624 3470,6631 3473,6634 3484,6644 3488,6647 3499,6656 3502,6659 3513,6669 3517,6672 3528,6682 3531,6685 3542,6695 3557,6708 3571,6722 3586,6735 3597,6745 3600,6749 3611,6759 3615,6762 3626,6773 3629,6776 3640,6786 3644,6790 3651,6797 3658,6804 3665,6811 3669,6814 3680,6825 3684,6829 3694,6839 3698,6843 3709,6854 3720,6864 3723,6868 3734,6878 3738,6882 3749,6892 3752,6895 3763,6905 3767,6909 3774,6916 3781,6922 3789,6929 3792,6932 3803,6943 3807,6946 3818,6957 3821,6960 3832,6970 3836,6974 3843,6980 3850,6987 3858,6993 3865,6999 3872,7005 3883,7013 3887,7016 3897,7023 3901,7025 3912,7031 3926,7039 3941,7047 3952,7052 3966,7060 3977,7066 3981,7067 3995,7075 4002,7079 4010,7083 4021,7089 4024,7091 4035,7097 4050,7105 4064,7113 4071,7117 4075,7119 4089,7127 4097,7131 4104,7136 4118,7144 4133,7152 4144,7158 4158,7166 4166,7170 4173,7174 4187,7182 4191,7184 4198,7187 4213,7194 4220,7198 4227,7201 4242,7208 4249,7211 4256,7214 4267,7219 4278,7223 4282,7225 4296,7230 4311,7236 4321,7241 4336,7247 4343,7250 4350,7252 4365,7259 4376,7263 4390,7270 4405,7277 4419,7284 4434,7291 4445,7296 4459,7302 4474,7308 4488,7314 4492,7316 4499,7319 4513,7324 4528,7329 4542,7334 4557,7339 4568,7343 4582,7347 4597,7351 4611,7354 4615,7355 4622,7356 4637,7359 4651,7361 4666,7364 4676,7365 4691,7368 4695,7369 4705,7370 4720,7373 4734,7376 4745,7378 4760,7380 4771,7382 4774,7382 4789,7385 4800,7387 4814,7390 4829,7393 4836,7395 4843,7396 4858,7400 4869,7402 4883,7404 4898,7404 4912,7403 4923,7401 4937,7398 4952,7395 4956,7394 4966,7391 4981,7388 4992,7386 5006,7384 5021,7381 5035,7379 5046,7377 5061,7374 5075,7372 5090,7369 5097,7368 5100,7367 5115,7365 5129,7362 5144,7360 5158,7358 5169,7356 5173,7355 5184,7353 5198,7349 5213,7345 5224,7342 5227,7341 5238,7337 5253,7332 5264,7328 5267,7326 5282,7320 5293,7315 5307,7309 5322,7302 5325,7301 5336,7296 5347,7291 5354,7288 5361,7285 5376,7279 5387,7274 5390,7273 5401,7268 5416,7262 5430,7256 5445,7250 5448,7248 5459,7244 5470,7239 5481,7235 5485,7233 5499,7227 5514,7222 5524,7217 5539,7211 5543,7209 5553,7204 5568,7198 5572,7196 5582,7191 5593,7185 5601,7182 5608,7178 5622,7170 5626,7168 5637,7162 5648,7156 5662,7148 5673,7142 5677,7140 5691,7131 5695,7129 5706,7123 5717,7117 5720,7115 5731,7109 5742,7103 5746,7101 5760,7093 5767,7089 5771,7087 5785,7079 5789,7078 5800,7072 5814,7064 5825,7058 5840,7050 5854,7043 5865,7037 5869,7035 5883,7027 5890,7024 5894,7022 5909,7013 5912,7011 5923,7005 5938,6996 5948,6989 5956,6985 5963,6980 5977,6970 5992,6960 5996,6957 6006,6949 6014,6944 6017,6941 6032,6931 6046,6920 6050,6917 6061,6909 6068,6904 6072,6901 6086,6891 6101,6881 6104,6878 6115,6870 6122,6865 6126,6863 6140,6853 6155,6842 6162,6837 6169,6832 6180,6825 6184,6822 6195,6815 6198,6812 6209,6805 6217,6800 6224,6795 6238,6785 6249,6778 6256,6773 6264,6768 6275,6760 6278,6758 6293,6748 6296,6745 6307,6738 6314,6733 6318,6730 6333,6720 6347,6710 6351,6707 6362,6699 6369,6694 6372,6691 6387,6681 6401,6670 6405,6668 6416,6660 6427,6652 6430,6650 6441,6642 6445,6640 6456,6632 6463,6627 6470,6622 6481,6614 6485,6612 6496,6604 6499,6602 6510,6594 6521,6587 6525,6584 6539,6574 6550,6567 6557,6562 6564,6557 6579,6548 6593,6539 6601,6534 6608,6529 6619,6522 6633,6511 6637,6509 6648,6500 6655,6495 6662,6489 6670,6483 6673,6480 6688,6467 6702,6454 6717,6441 6728,6430 6731,6427 6742,6416 6757,6401 6767,6391 6771,6387 6782,6376 6786,6373 6796,6362 6811,6348 6825,6335 6836,6325 6840,6321 6851,6311 6865,6298 6880,6284 6894,6271 6909,6257 6920,6248 6923,6244 6934,6234 6938,6231 6949,6221 6952,6218 6963,6209 6967,6205 6974,6199 6981,6192 6988,6186 6996,6179 7003,6173 7010,6166 7017,6160 7025,6153 7032,6146 7039,6140 7043,6136 7054,6126 7057,6123 7068,6113 7072,6109 7083,6099 7086,6096 7097,6085 7112,6072 7126,6058 7141,6044 7155,6031 7166,6021 7181,6008 7195,5995 7210,5981 7213,5978 7220,5972 7228,5965 7235,5959 7242,5952 7249,5946 7257,5940 7264,5933 7271,5927 7275,5924 7286,5914 7289,5911 7300,5901 7304,5898 7315,5888 7318,5885 7333,5873 7344,5863 7347,5860 7358,5851 7362,5848 7373,5840 7380,5834 7387,5828 7398,5820 7412,5810 7427,5799 7434,5794 7441,5790 7452,5782 7456,5780 7467,5773 7474,5768 7481,5764 7492,5757 7496,5755 7510,5745 7514,5743 7521,5738 7536,5729 7550,5720 7557,5715 7565,5711 7575,5704 7590,5695 7597,5690 7604,5686 7619,5677 7633,5668 7641,5663 7644,5661 7659,5652 7662,5650 7673,5643 7684,5637 7688,5635 7699,5628 7706,5624 7713,5619 7728,5610 7742,5601 7749,5597 7757,5592 7768,5585 7782,5576 7789,5571 7797,5566 7811,5557 7822,5549 7829,5545 7836,5540 7851,5530 7865,5520 7869,5518 7880,5511 7891,5504 7905,5494 7909,5492 7920,5485 7931,5478 7934,5476 7945,5469 7952,5464 7960,5460 7970,5453 7974,5450 7989,5441 7992,5439 7999,5434 8014,5425 8028,5416 8036,5411 8043,5407 8054,5400 8057,5398 8068,5391 8076,5387 8083,5382 8097,5374 8112,5366 8123,5360 8137,5352 8148,5347 8152,5345 8166,5338 8177,5333 8181,5331 8192,5326 8206,5320 8221,5313 8235,5307 8246,5302 8260,5295 8264,5294 8275,5289 8289,5282 8293,5280 8300,5277 8315,5271 8322,5267 8329,5264 8344,5258 8351,5254 8358,5251 8369,5246 8380,5242 8384,5240 8398,5233 8409,5229 8413,5227 8423,5222 8438,5216 8442,5214 8452,5210 8467,5204 8474,5201 8481,5198 8492,5194 8507,5189 8521,5184 8536,5179 8547,5175 8561,5171 8576,5166 8587,5162 8590,5161 8605,5156 8616,5153 8630,5148 8645,5143 8659,5139 8670,5135 8684,5130 8698,5126 8709,5122 8712,5121 8723,5117 8738,5113 8752,5109 8767,5104 8781,5100 8792,5096 8807,5091 8821,5085 8825,5083 8836,5078 8846,5072 8850,5070 8861,5063 8872,5055 8875,5053 8890,5041 8904,5029 8915,5020 8919,5017 8930,5008 8933,5005 8944,4997 8955,4991 8959,4989 8970,4984 8984,4980 8988,4979 8999,4976 9013,4972 9024,4969 9035,4965 9038,4963 9053,4957 9064,4951 9067,4950 9082,4943 9093,4938 9107,4932 9122,4927 9129,4925 9136,4923 9147,4920 9162,4917 9176,4913 9180,4912 9191,4909 9205,4906 9216,4902 9227,4899 9231,4898 9245,4892 9260,4886 9270,4881 9285,4875 9289,4873 9299,4868 9314,4862 9321,4860 9328,4857 9339,4854 9354,4850 9368,4846 9383,4842 9394,4840 9408,4836 9419,4833 9423,4832 9437,4828 9448,4824 9462,4820 9477,4816 9491,4811 9506,4807 9510,4806 9517,4804 9531,4801 9546,4798 9560,4795 9564,4794 9571,4792 9586,4788 9600,4784 9611,4780 9615,4778 9629,4772 9640,4766 9655,4758 9665,4753 9669,4751 9684,4743 9691,4739 9694,4738 9709,4730 9716,4727 9723,4724 9738,4717 9745,4713 9749,4712 9763,4705 9770,4701 9778,4698 9792,4691 9799,4687 9807,4684 9818,4679 9828,4673 9832,4672 9847,4665 9854,4661 9861,4658 9872,4653 9883,4648 9886,4646 9901,4640 9912,4635 9915,4634 9930,4628 9941,4624 9948,4622 9955,4619 9970,4615 9984,4610 9992,4608 9995,4607 10010,4603 10024,4599 10039,4595 10053,4591 10064,4588 10079,4584 10086,4582 10093,4580 10108,4576 10118,4573 10133,4569 10147,4565 10162,4561 10173,4558 10180,4556 10187,4554 10202,4550 10216,4546 10231,4542 10242,4539 10256,4535 10271,4531 10278,4529 10285,4527 10296,4524 10310,4519 10321,4516 10325,4515 10339,4510 10354,4506 10365,4502 10379,4498 10394,4493 10405,4490 10408,4489 10419,4485 10434,4481 10448,4476 10463,4471 10473,4468 10488,4464 10502,4459 10517,4455 10531,4450 10542,4447 10557,4442 10571,4437 10575,4436 10586,4433 10597,4430 10611,4425 10618,4423 10626,4421 10640,4418 10655,4415 10666,4412 10676,4410 10680,4410 10695,4407 10709,4406 10720,4404 10734,4403 10749,4401 10763,4400 10778,4398 10782,4398 10789,4397 10803,4395 10818,4393 10832,4392 10843,4390 10858,4389 10872,4387 10887,4385 10894,4384 10897,4384 10912,4382 10926,4381 10941,4379 10955,4378 10966,4376 10981,4374 10995,4372 11003,4371 11010,4370 11021,4367 11035,4364 11050,4361 11064,4357 11079,4354 11090,4351 11104,4347 11111,4345 11119,4342 11133,4338 11144,4335 11158,4331 11173,4328 11187,4324 11198,4321 11209,4318 11213,4317 11227,4313 11242,4309 11256,4305 11260,4304 11267,4302 11282,4298 11296,4294 11307,4291 11311,4290 11321,4288 11336,4284 11350,4280 11358,4279 11365,4277 11379,4274 11390,4272 11405,4269 11419,4267 11430,4266 11434,4265 11445,4264 11459,4262 11474,4260 11488,4258 11503,4256 11514,4255 11528,4253 11535,4252 11543,4251 11557,4249 11568,4248 11582,4246 11597,4244 11611,4242 11622,4241 11637,4239 11651,4237 11666,4235 11680,4233 11691,4232 11706,4230 11720,4228 11735,4226 11745,4224 11760,4222 11774,4220 11789,4218 11803,4216 11814,4214 11825,4213 11829,4212 11843,4210 11858,4208 11869,4206 11883,4204 11898,4202 11912,4200 11916,4199 11923,4198 11937,4196 11952,4194 11966,4192 11981,4189 11992,4188 12003,4186 12006,4186 12021,4183 12035,4181 12046,4180 12061,4178 12075,4176 12090,4174 12093,4173 12104,4172 12115,4170 12130,4169 12144,4167 12159,4165 12169,4164 12184,4163 12198,4161 12213,4160 12227,4158 12238,4157 12253,4156 12267,4154 12282,4153 12293,4151 12307,4150 12322,4148 12336,4147 12340,4147 12347,4146 12361,4144 12376,4143 12390,4141 12405,4140 12416,4139 12430,4137 12445,4136 12459,4134 12467,4133 12470,4133 12485,4132 12499,4130 12514,4129 12528,4127 12539,4126 12554,4124 12568,4123 12583,4121 12593,4120 12597,4120 12608,4119 12622,4117 12637,4116 12648,4115 12662,4113 12677,4112 12691,4110 12706,4109 12717,4108 12724,4107 12731,4106 12746,4105 12760,4103 12771,4102 12785,4101 12800,4099 12814,4098 12829,4097 12840,4096 12854,4095 12869,4094 12883,4093 12894,4092 12909,4091 12923,4091 12938,4090 12952,4089 12963,4088 12978,4087 12992,4086 13007,4085 13017,4085 13032,4084 13046,4083 13061,4082 13072,4082 13086,4081 13101,4080 13115,4079 13130,4078 13141,4077 13155,4076 13170,4076 13184,4075 13195,4074 13209,4074 13224,4073 13238,4072 13253,4072 13264,4071 13278,4071 13293,4070 13307,4070 13318,4069 13333,4069 13347,4068 13362,4067 13373,4067 13387,4066 13401,4066 13416,4065 13430,4065 13441,4064 13456,4064 13470,4063 13485,4062 13496,4062 13510,4061 13525,4061 13539,4061 13554,4061 13565,4061 13579,4062 13594,4062 13608,4063 13619,4063 13633,4064 13648,4065 13662,4066 13677,4067 13684,4068 13688,4068 13702,4069 13717,4070 13731,4070 13742,4071 13757,4072 13771,4073 13786,4074 13796,4074 13811,4075 13825,4076 13840,4077 13854,4078 13865,4079 13880,4079 13894,4080 13909,4081 13920,4081 13934,4082 13949,4082 13963,4083 13978,4083 13989,4083 14003,4083 14018,4084 14032,4084 14043,4084 14057,4084 14072,4085 14086,4085 14097,4085 14112,4086 14126,4086 14141,4086 14155,4086 14166,4087 14181,4087 14195,4087 14210,4087 14220,4088 14235,4088 14249,4088 14264,4089 14278,4090 14289,4090 14304,4091 14318,4092 14333,4093 14344,4094 14358,4095 14373,4097 14387,4098 14402,4099 14413,4100 14427,4101 14442,4102 14456,4103 14467,4104 14481,4105 14496,4107 14503,4107 14510,4108 14521,4109 14536,4110 14550,4111 14565,4112 14579,4113 14590,4114 14605,4116 14619,4117 14634,4118 14644,4119 14659,4120 14673,4122 14688,4123 14702,4125 14713,4126 14728,4127 14742,4129 14757,4130 14768,4132 14782,4133 14789,4134 14797,4135 14811,4136 14822,4137 14836,4139 14851,4140 14865,4142 14880,4143 14891,4144 14905,4146 14916,4147 14920,4147 14934,4149 14945,4150 14960,4151 14974,4153 14989,4155 15003,4157 15014,4158 15029,4160 15032,4160 15043,4162 15058,4164 15068,4165 15083,4168 15097,4170 15112,4172 15123,4174 15126,4174 15137,4176 15152,4178 15166,4180 15181,4182 15192,4184 15206,4186 15210,4186 15221,4188 15235,4190 15246,4192 15260,4194 15275,4196 15289,4198 15300,4200 15304,4200 15315,4202 15329,4204 15344,4207 15358,4209 15369,4211 15380,4213 15384,4214 15398,4217 15413,4220 15427,4223 15438,4225 15445,4227 15453,4228 15467,4231 15482,4235 15492,4237 15503,4239 15507,4240 15521,4243 15536,4246 15547,4249 15561,4252 15565,4253 15576,4255 15590,4258 15605,4261 15616,4264 15626,4266 15630,4267 15645,4270 15659,4273 15670,4275 15684,4279 15688,4280 15699,4282 15713,4286 15728,4290 15739,4292 15753,4297 15768,4301 15782,4305 15786,4306 15793,4309 15808,4313 15822,4318 15826,4319 15837,4322 15851,4327 15862,4330 15866,4332 15877,4335 15891,4340 15906,4344 15909,4345 15916,4348 15931,4352 15945,4357 15949,4358 15960,4362 15971,4365 15985,4370 15992,4372 16000,4374 16014,4379 16029,4384 16032,4385 16040,4387 16054,4392 16069,4397 16072,4398 16083,4401 16094,4405 16108,4410 16112,4411 16123,4414 16137,4419 16152,4424 16156,4425 16163,4428 16177,4432 16192,4437 16195,4438 16206,4442 16217,4446 16232,4450 16235,4452 16246,4455 16261,4460 16272,4464"/>
 <text class="TextShape"><tspan class="TextParagraph" font-family="Calibri" font-size="353px" font-weight="400"><tspan class="TextPosition" x="1460" y="8688"><tspan fill="rgb(0,0,0)" stroke="none">600</tspan></tspan></tspan></text>
 <text class="TextShape"><tspan class="TextParagraph" font-family="Calibri" font-size="353px" font-weight="400"><tspan class="TextPosition" x="3271" y="8688"><tspan fill="rgb(0,0,0)" stroke="none">650</tspan></tspan></tspan></text>
 <text class="TextShape"><tspan class="TextParagraph" font-family="Calibri" font-size="353px" font-weight="400"><tspan class="TextPosition" x="5083" y="8688"><tspan fill="rgb(0,0,0)" stroke="none">700</tspan></tspan></tspan></text>
 <text class="TextShape"><tspan class="TextParagraph" font-family="Calibri" font-size="353px" font-weight="400"><tspan class="TextPosition" x="6895" y="8688"><tspan fill="rgb(0,0,0)" stroke="none">750</tspan></tspan></tspan></text>
 <text class="TextShape"><tspan class="TextParagraph" font-family="Calibri" font-size="353px" font-weight="400"><tspan class="TextPosition" x="8707" y="8688"><tspan fill="rgb(0,0,0)" stroke="none">800</tspan></tspan></tspan></text>
 <text class="TextShape"><tspan class="TextParagraph" font-family="Calibri" font-size="353px" font-weight="400"><tspan class="TextPosition" x="10519" y="8688"><tspan fill="rgb(0,0,0)" stroke="none">850</tspan></tspan></tspan></text>
 <text class="TextShape"><tspan class="TextParagraph" font-family="Calibri" font-size="353px" font-weight="400"><tspan class="TextPosition" x="12331" y="8688"><tspan fill="rgb(0,0,0)" stroke="none">900</tspan></tspan></tspan></text>
 <text class="TextShape"><tspan class="TextParagraph" font-family="Calibri" font-size="353px" font-weight="400"><tspan class="TextPosition" x="14143" y="8688"><tspan fill="rgb(0,0,0)" stroke="none">950</tspan></tspan></tspan></text>
 <text class="TextShape"><tspan class="TextParagraph" font-family="Calibri" font-size="353px" font-weight="400"><tspan class="TextPosition" x="15849" y="8688"><tspan fill="rgb(0,0,0)" stroke="none">1000</tspan></tspan></tspan></text>
 <path fill="none" stroke="rgb(0,0,0)" stroke-linejoin="round" d="M 13640,2636 L 11335,2636 11335,1625 15944,1625 15944,2636 13640,2636 Z"/>
 <path fill="none" stroke="rgb(74,126,187)" stroke-linejoin="round" d="M 12051,1894 L 12851,1894"/>
 <path fill="none" stroke="rgb(190,75,72)" stroke-linejoin="round" d="M 12051,2363 L 12851,2363"/>
 <text class="TextShape"><tspan class="TextParagraph" font-family="Liberation Sans" font-size="353px" font-weight="400"><tspan class="TextPosition" x="12951" y="2014"><tspan fill="rgb(0,0,0)" stroke="none">Hb02 (cm-1/M)</tspan></tspan></tspan></text>
 <text class="TextShape"><tspan class="TextParagraph" font-family="Liberation Sans" font-size="353px" font-weight="400"><tspan class="TextPosition" x="12951" y="2483"><tspan fill="rgb(0,0,0)" stroke="none">Hb (cm-1/M)</tspan></tspan></tspan></text>
 <text class="TextShape"><tspan class="TextParagraph" font-family="Calibri" font-size="353px" font-weight="700"><tspan class="TextPosition" x="7425" y="9447"><tspan fill="rgb(0,0,0)" stroke="none">Wavelength (nm)</tspan></tspan></tspan></text>
 <text class="TextShape"><tspan class="TextParagraph" font-family="Calibri" font-size="353px" font-weight="700"><tspan class="TextPosition" x="901" y="5911" transform="translate(901,5911) rotate(-90) translate(-901,-5911)"><tspan fill="rgb(0,0,0)" stroke="none">Absorption</tspan></tspan></tspan></text>
</svg>