<?xml version="1.0" encoding="UTF-8"?>
<!DOCTYPE svg PUBLIC "-//W3C//DTD SVG 1.1//EN" "http://www.w3.org/Graphics/SVG/1.1/DTD/svg11.dtd">
<svg width="160mm" height="90mm" viewBox="0 0 16000 9000" version="1.1" baseProfile="tiny" xmlns="http://www.w3.org/2000/svg" stroke-width="28.222" stroke-linejoin="round" xml:space="preserve">
 <path fill="rgb(255,255,255)" stroke="none" d="M 8000,8999 L 0,8999 0,0 15999,0 15999,8999 8000,8999 Z"/>
 <path fill="none" stroke="rgb(179,179,179)" stroke-linejoin="round" d="M 8334,7752 L 1497,7752 1497,1054 15172,1054 15172,7752 8334,7752 Z"/>
 <path fill="none" stroke="rgb(179,179,179)" stroke-linejoin="round" d="M 15172,7751 L 1497,7751"/>
 <path fill="none" stroke="rgb(179,179,179)" stroke-linejoin="round" d="M 15172,7006 L 1497,7006"/>
 <path fill="none" stroke="rgb(179,179,179)" stroke-linejoin="round" d="M 15172,6262 L 1497,6262"/>
 <path fill="none" stroke="rgb(179,179,179)" stroke-linejoin="round" d="M 15172,5518 L 1497,5518"/>
 <path fill="none" stroke="rgb(179,179,179)" stroke-linejoin="round" d="M 15172,4773 L 1497,4773"/>
 <path fill="none" stroke="rgb(179,179,179)" stroke-linejoin="round" d="M 15172,4030 L 1497,4030"/>
 <path fill="none" stroke="rgb(179,179,179)" stroke-linejoin="round" d="M 15172,3286 L 1497,3286"/>
 <path fill="none" stroke="rgb(179,179,179)" stroke-linejoin="round" d="M 15172,2541 L 1497,2541"/>
 <path fill="none" stroke="rgb(179,179,179)" stroke-linejoin="round" d="M 15172,1797 L 1497,1797"/>
 <path fill="none" stroke="rgb(179,179,179)" stroke-linejoin="round" d="M 15172,1053 L 1497,1053"/>
 <path fill="none" stroke="rgb(179,179,179)" stroke-linejoin="round" d="M 1497,7901 L 1497,7751"/>
 <path fill="none" stroke="rgb(179,179,179)" stroke-linejoin="round" d="M 1497,7901 L 1497,7751"/>
 <path fill="none" stroke="rgb(179,179,179)" stroke-linejoin="round" d="M 2864,7901 L 2864,7751"/>
 <path fill="none" stroke="rgb(179,179,179)" stroke-linejoin="round" d="M 2864,7901 L 2864,7751"/>
 <path fill="none" stroke="rgb(179,179,179)" stroke-linejoin="round" d="M 4232,7901 L 4232,7751"/>
 <path fill="none" stroke="rgb(179,179,179)" stroke-linejoin="round" d="M 4232,7901 L 4232,7751"/>
 <path fill="none" stroke="rgb(179,179,179)" stroke-linejoin="round" d="M 5599,7901 L 5599,7751"/>
 <path fill="none" stroke="rgb(179,179,179)" stroke-linejoin="round" d="M 5599,7901 L 5599,7751"/>
 <path fill="none" stroke="rgb(179,179,179)" stroke-linejoin="round" d="M 6967,7901 L 6967,7751"/>
 <path fill="none" stroke="rgb(179,179,179)" stroke-linejoin="round" d="M 6967,7901 L 6967,7751"/>
 <path fill="none" stroke="rgb(179,179,179)" stroke-linejoin="round" d="M 8334,7901 L 8334,7751"/>
 <path fill="none" stroke="rgb(179,179,179)" stroke-linejoin="round" d="M 8334,7901 L 8334,7751"/>
 <path fill="none" stroke="rgb(179,179,179)" stroke-linejoin="round" d="M 9701,7901 L 9701,7751"/>
 <path fill="none" stroke="rgb(179,179,179)" stroke-linejoin="round" d="M 9701,7901 L 9701,7751"/>
 <path fill="none" stroke="rgb(179,179,179)" stroke-linejoin="round" d="M 11069,7901 L 11069,7751"/>
 <path fill="none" stroke="rgb(179,179,179)" stroke-linejoin="round" d="M 11069,7901 L 11069,7751"/>
 <path fill="none" stroke="rgb(179,179,179)" stroke-linejoin="round" d="M 12436,7901 L 12436,7751"/>
 <path fill="none" stroke="rgb(179,179,179)" stroke-linejoin="round" d="M 12436,7901 L 12436,7751"/>
 <path fill="none" stroke="rgb(179,179,179)" stroke-linejoin="round" d="M 13804,7901 L 13804,7751"/>
 <path fill="none" stroke="rgb(179,179,179)" stroke-linejoin="round" d="M 13804,7901 L 13804,7751"/>
 <path fill="none" stroke="rgb(179,179,179)" stroke-linejoin="round" d="M 15172,7901 L 15172,7751"/>
 <path fill="none" stroke="rgb(179,179,179)" stroke-linejoin="round" d="M 15172,7901 L 15172,7751"/>
 <path fill="none" stroke="rgb(179,179,179)" stroke-linejoin="round" d="M 1497,7751 L 15172,7751"/>
 <path fill="none" stroke="rgb(179,179,179)" stroke-linejoin="round" d="M 1347,7751 L 1497,7751"/>
 <path fill="none" stroke="rgb(179,179,179)" stroke-linejoin="round" d="M 1347,7751 L 1497,7751"/>
 <path fill="none" stroke="rgb(179,179,179)" stroke-linejoin="round" d="M 1347,7006 L 1497,7006"/>
 <path fill="none" stroke="rgb(179,179,179)" stroke-linejoin="round" d="M 1347,7006 L 1497,7006"/>
 <path fill="none" stroke="rgb(179,179,179)" stroke-linejoin="round" d="M 1347,6262 L 1497,6262"/>
 <path fill="none" stroke="rgb(179,179,179)" stroke-linejoin="round" d="M 1347,6262 L 1497,6262"/>
 <path fill="none" stroke="rgb(179,179,179)" stroke-linejoin="round" d="M 1347,5518 L 1497,5518"/>
 <path fill="none" stroke="rgb(179,179,179)" stroke-linejoin="round" d="M 1347,5518 L 1497,5518"/>
 <path fill="none" stroke="rgb(179,179,179)" stroke-linejoin="round" d="M 1347,4773 L 1497,4773"/>
 <path fill="none" stroke="rgb(179,179,179)" stroke-linejoin="round" d="M 1347,4773 L 1497,4773"/>
 <path fill="none" stroke="rgb(179,179,179)" stroke-linejoin="round" d="M 1347,4030 L 1497,4030"/>
 <path fill="none" stroke="rgb(179,179,179)" stroke-linejoin="round" d="M 1347,4030 L 1497,4030"/>
 <path fill="none" stroke="rgb(179,179,179)" stroke-linejoin="round" d="M 1347,3286 L 1497,3286"/>
 <path fill="none" stroke="rgb(179,179,179)" stroke-linejoin="round" d="M 1347,3286 L 1497,3286"/>
 <path fill="none" stroke="rgb(179,179,179)" stroke-linejoin="round" d="M 1347,2541 L 1497,2541"/>
 <path fill="none" stroke="rgb(179,179,179)" stroke-linejoin="round" d="M 1347,2541 L 1497,2541"/>
 <path fill="none" stroke="rgb(179,179,179)" stroke-linejoin="round" d="M 1347,1797 L 1497,1797"/>
 <path fill="none" stroke="rgb(179,179,179)" stroke-linejoin="round" d="M 1347,1797 L 1497,1797"/>
 <path fill="none" stroke="rgb(179,179,179)" stroke-linejoin="round" d="M 1347,1053 L 1497,1053"/>
 <path fill="none" stroke="rgb(179,179,179)" stroke-linejoin="round" d="M 1347,1053 L 1497,1053"/>
 <path fill="none" stroke="rgb(179,179,179)" stroke-linejoin="round" d="M 1497,7751 L 1497,1053"/>
 <path fill="none" stroke="rgb(0,69,134)" stroke-linejoin="round" d="M 1497,6411 L 1497,6262 1497,6113 1497,5964 1497,5741 1503,5666 1510,5443 1517,5071 1531,4848 1538,4402 1544,3881 1551,3360 1558,2988 1565,2392 1579,2095 1585,2095 1592,2392 1599,2541 1606,2988 1613,3434 1626,3658 1633,4030 1640,4476 1647,4624 1654,4922 1661,5071 1674,5369 1688,5592 1695,5815 1702,5890 1708,5890 1722,5964 1736,6113 1743,6039 1750,6262 1756,6187 1770,6262 1777,6336 1784,6411 1797,6560 1811,6485 1818,6560 1825,6560 1832,6783 1838,6634 1845,6708 1859,6708 1866,6560 1873,6560 1879,6857 1886,6708 1893,6783 1907,6634 1914,6560 1920,6411 1927,6485 1934,6485 1941,6783 1955,6708 1961,6857 1968,6857 1975,6932 1982,6932 2003,6857 2009,7006 2016,6485 2023,5666 2030,5518 2044,6485 2050,6634 2057,6560 2071,6411 2078,6262 2091,6039 2098,5964 2105,5964 2112,5890 2119,5815 2126,5592 2139,5443 2146,5220 2153,5071 2160,4773 2167,4253 2173,3807 2187,3286 2194,2541 2201,2318 2208,1871 2214,1722 2221,1871 2235,2169 2242,2616 2249,2764 2256,3286 2262,3881 2269,4030 2283,4402 2290,4624 2297,4922 2303,5071 2310,5294 2324,5369 2331,5369 2338,5518 2344,5666 2351,5666 2358,5741 2372,5890 2379,5964 2392,6187 2399,6262 2406,6336 2420,6411 2426,6560 2440,6560 2447,6708 2454,6857 2467,6708 2474,6857 2481,6783 2488,6857 2502,7006 2515,6857 2529,6857 2536,6783 2543,6783 2556,6783 2563,6783 2570,6857 2577,6857 2591,6857 2604,7081 2618,7155 2625,6932 2632,7081 2638,6783 2652,6113 2659,5815 2666,6708 2673,7229 2679,7304 2686,7304 2700,7229 2707,7006 2714,6857 2727,6708 2734,6411 2748,6336 2755,6113 2762,5964 2768,5666 2775,5592 2782,5220 2796,4848 2803,4476 2809,3955 2816,3360 2823,2988 2837,2392 2844,2095 2850,2095 2857,2392 2864,2690 2871,3211 2885,3583 2891,3881 2898,4179 2905,4476 2912,4773 2919,4996 2932,5294 2939,5592 2946,5443 2953,5666 2960,5890 2967,5964 2980,5964 2987,6113 2994,6262 3001,6262 3008,6336 3015,6485 3028,6411 3035,6485 3042,6560 3049,6708 3056,6634 3069,6708 3076,6708 3083,6783 3097,6857 3103,6783 3117,6857 3124,6857 3131,6932 3138,6857 3144,6857 3165,6708 3172,6560 3179,6634 3185,6708 3192,6783 3199,6708 3213,6857 3220,6783 3227,6932 3233,6857 3247,6932 3261,6857 3268,6113 3274,5815 3281,6485 3288,7155 3295,7155 3309,7229 3315,7006 3322,6857 3329,6783 3336,6708 3350,6336 3356,6262 3363,6113 3370,5964 3377,5741 3384,5666 3397,5294 3404,5071 3411,4624 3418,4253 3425,3881 3432,3137 3445,2467 3452,2318 3459,1946 3473,2243 3480,2690 3493,2988 3500,3360 3507,3658 3514,4030 3521,4402 3527,4624 3541,4773 3548,5071 3555,5220 3562,5369 3568,5369 3582,5666 3596,5666 3603,5815 3609,5964 3616,5890 3630,5964 3637,6039 3644,6113 3657,6113 3664,6262 3678,6411 3691,6485 3705,6485 3726,6560 3733,6411 3739,6560 3746,6485 3753,6485 3760,6336 3774,6411 3780,6411 3787,6336 3794,6411 3801,6560 3821,6560 3828,6560 3835,6634 3842,6485 3849,6560 3862,5890 3869,5443 3876,5666 3883,6634 3890,6560 3897,6708 3910,6634 3917,6411 3924,6262 3931,6262 3938,5964 3958,5741 3965,5666 3972,5443 3979,5369 3986,4996 3992,4922 4006,4402 4013,4104 4020,3583 4027,2988 4033,2541 4040,2095 4054,1797 4061,1648 4068,2020 4074,2169 4081,2541 4095,2913 4102,3286 4109,3658 4115,3881 4122,4253 4129,4476 4143,4773 4150,4848 4156,5071 4163,5145 4170,5369 4177,5443 4191,5518 4198,5443 4204,5741 4211,5666 4218,5741 4225,5815 4239,5890 4252,5964 4259,6039 4266,5964 4273,6039 4286,6262 4293,6113 4300,6039 4307,6113 4314,6262 4321,5964 4334,6187 4348,6262 4355,6187 4362,6262 4375,6262 4382,6411 4389,6411 4396,6485 4403,6560 4409,6262 4423,5592 4430,5369 4437,5964 4444,6634 4451,6708 4457,6634 4471,6485 4478,6411 4485,6039 4492,5964 4498,5890 4505,5815 4519,5443 4526,5518 4533,5369 4539,5071 4546,4773 4553,4624 4567,4179 4574,3881 4580,3360 4587,2988 4594,2243 4608,1871 4615,1797 4621,1871 4635,2392 4642,2690 4656,3137 4662,3286 4669,3807 4676,3881 4683,4328 4690,4476 4704,4699 4710,4773 4717,5071 4724,5071 4731,5071 4738,5294 4751,5443 4758,5369 4765,5592 4772,5518 4779,5592 4786,5666 4799,5815 4806,5815 4813,5890 4820,5890 4827,5964 4833,5964 4847,5964 4854,6039 4861,6113 4868,6113 4874,6262 4888,6262 4895,6187 4909,6187 4916,6113 4936,6113 4943,6187 4950,6262 4957,6262 4963,6336 4970,6336 4984,6262 4991,6485 4998,6262 5004,5741 5011,5369 5018,5443 5032,6262 5039,6560 5045,6560 5052,6485 5059,6262 5066,6262 5080,6039 5086,5890 5093,5815 5100,5741 5107,5518 5121,5369 5127,5294 5134,4848 5141,4624 5148,4476 5155,3881 5169,3583 5175,2988 5182,2392 5189,1797 5196,1722 5203,1648 5216,1648 5223,1871 5230,2467 5237,2913 5244,3286 5251,3509 5264,3955 5271,4104 5278,4476 5285,4699 5292,4773 5298,4996 5312,5145 5319,5369 5326,5294 5333,5443 5339,5592 5346,5443 5360,5666 5367,5666 5374,5741 5380,5666 5387,5890 5401,5815 5408,5890 5415,5964 5422,6039 5428,5964 5435,6113 5449,6262 5456,6113 5463,6113 5469,6262 5476,6336 5483,6262 5497,6262 5504,6411 5510,6262 5517,6187 5524,6262 5531,6336 5545,6187 5551,6336 5558,6485 5565,6411 5572,6485 5579,6560 5592,6560 5599,6560 5606,5964 5613,5518 5620,5592 5633,6411 5640,6560 5647,6634 5654,6485 5661,6560 5668,6262 5681,6187 5688,6039 5695,5964 5702,5666 5709,5666 5716,5443 5729,5294 5736,4996 5743,4922 5750,4476 5757,4104 5763,3658 5777,3062 5784,2541 5791,2095 5798,1797 5804,1648 5811,1722 5825,2169 5832,2467 5839,2839 5845,3286 5852,3732 5859,3955 5873,4253 5880,4624 5886,4773 5893,4996 5900,5294 5914,5369 5921,5369 5928,5518 5934,5666 5948,5666 5962,5741 5969,5964 5982,6113 5996,6262 6010,6262 6023,6262 6030,6336 6037,6485 6044,6485 6057,6485 6064,6560 6071,6560 6085,6560 6092,6634 6105,6560 6119,6560 6126,6485 6133,6411 6146,6560 6160,6560 6167,6560 6181,6560 6194,6634 6201,6708 6208,6857 6215,6560 6222,6039 6228,5592 6242,6039 6249,6708 6256,7006 6263,6857 6269,6783 6276,6708 6290,6560 6297,6411 6304,6262 6310,6113 6317,5964 6324,5666 6338,5666 6345,5518 6351,5220 6358,4996 6365,4699 6372,4179 6386,3658 6393,3062 6399,2690 6406,2095 6413,1946 6427,1797 6434,1797 6440,2243 6447,2690 6454,3062 6461,3583 6475,3881 6481,4179 6488,4402 6495,4773 6502,4922 6509,5071 6522,5220 6529,5443 6536,5518 6543,5741 6550,5815 6557,5815 6570,5815 6577,5964 6591,5964 6604,6113 6618,6113 6625,6039 6632,6262 6639,6336 6646,6262 6659,6336 6666,6411 6673,6336 6680,6336 6687,6485 6693,6336 6707,6336 6714,6336 6728,6187 6734,6336 6741,6262 6755,6411 6762,6411 6769,6485 6775,6411 6782,6560 6789,6560 6803,6708 6810,6634 6816,6485 6823,5815 6830,5369 6837,5964 6851,6634 6857,6857 6864,6708 6871,6560 6878,6560 6885,6262 6899,6187 6905,6039 6912,5964 6919,5741 6926,5666 6940,5443 6946,5220 6953,4996 6960,4773 6967,4328 6974,3881 6987,3434 6994,2988 7001,2392 7008,1797 7015,1722 7022,1574 7035,1871 7042,2392 7049,2616 7056,2988 7063,3509 7069,3658 7083,3955 7090,4476 7097,4476 7104,4848 7110,4848 7117,5145 7131,5220 7138,5443 7145,5518 7152,5666 7158,5518 7165,5666 7179,5815 7186,5815 7193,5964 7199,6039 7206,5964 7220,5964 7227,6262 7234,6262 7247,6262 7268,6336 7275,6262 7281,6411 7288,6336 7295,6336 7316,6262 7322,6336 7329,6262 7336,6262 7343,6336 7350,6411 7364,6411 7370,6485 7384,6485 7391,6560 7398,6485 7411,6262 7418,5741 7425,5518 7432,6039 7439,6783 7452,6857 7459,6708 7466,6634 7473,6560 7480,6262 7487,6187 7500,6187 7507,5964 7514,5890 7521,5815 7528,5592 7534,5369 7548,5071 7555,4996 7562,4476 7569,3955 7575,3583 7582,2988 7596,2392 7603,2095 7610,1797 7617,1797 7623,2020 7630,2467 7644,2839 7651,3286 7658,3583 7666,3881 7673,4030 7681,4402 7690,4773 7697,4848 7705,4922 7714,5369 7722,5369 7729,5443 7738,5592 7746,5666 7753,5592 7761,5815 7770,5890 7778,5890 7785,5964 7794,6113 7802,5964 7810,6113 7818,6187 7826,6336 7834,6262 7841,6336 7850,6485 7858,6485 7866,6336 7874,6560 7882,6560 7890,6560 7906,6634 7914,6560 7930,6560 7938,6485 7946,6485 7954,6485 7962,6411 7970,6560 7978,6560 7986,6708 7994,6560 8001,6783 8009,6708 8017,6708 8025,6783 8033,6485 8041,5815 8049,5518 8057,6039 8065,6857 8081,6857 8089,6783 8097,6560 8105,6485 8113,6336 8122,6262 8129,6039 8137,5890 8145,5815 8153,5518 8161,5369 8169,5220 8178,4848 8185,4476 8193,4179 8202,3583 8209,3137 8217,2467 8225,2169 8234,1797 8241,1871 8249,2020 8258,2392 8265,2764 8273,3062 8282,3583 8290,3881 8297,4253 8306,4476 8314,4624 8322,4922 8330,5145 8338,5294 8346,5369 8354,5518 8362,5666 8370,5741 8378,5815 8386,6039 8394,5964 8402,5964 8409,6113 8418,6262 8426,6187 8434,6262 8442,6336 8450,6411 8458,6411 8465,6485 8474,6560 8482,6485 8490,6560 8498,6560 8506,6485 8514,6560 8522,6560 8538,6560 8546,6634 8554,6485 8562,6336 8570,6262 8578,6485 8586,6411 8594,6485 8602,6560 8610,6560 8626,6560 8634,6708 8650,6708 8658,6560 8666,5964 8674,5443 8682,5964 8690,6783 8698,6783 8706,6783 8714,6634 8722,6560 8730,6336 8738,6262 8747,6039 8754,5964 8762,5741 8770,5666 8778,5369 8786,5294 8794,4996 8803,4699 8810,4253 8818,3881 8827,3434 8835,2764 8842,2392 8850,1797 8859,1499 8866,1648 8874,1797 8883,2020 8891,2392 8898,2839 8907,3286 8915,3434 8922,3955 8930,4328 8939,4476 8947,4624 8954,4848 8963,5071 8971,5071 8978,5369 8987,5443 8995,5443 9003,5518 9010,5666 9017,5592 9024,5741 9038,5741 9045,5815 9051,5741 9058,5964 9065,5890 9072,6039 9086,6113 9093,6262 9099,6039 9106,6262 9120,6336 9134,6262 9140,6411 9147,6262 9154,6411 9161,6262 9168,6485 9181,6336 9188,6411 9195,6262 9202,6336 9209,6187 9216,6262 9229,6187 9236,6262 9243,6262 9250,6411 9257,6336 9270,6485 9277,6485 9284,6560 9291,6560 9298,6485 9304,5964 9318,5369 9325,5518 9332,6560 9339,6634 9346,6708 9352,6560 9366,6485 9373,6262 9380,6113 9387,5964 9393,5741 9400,5592 9414,5592 9421,5369 9428,5071 9434,4922 9441,4773 9448,4402 9462,3955 9469,3583 9475,2988 9482,2392 9489,1946 9503,1648 9510,1350 9516,1499 9523,1797 9530,2169 9537,2541 9551,2988 9558,3509 9564,3658 9571,4104 9578,4328 9585,4476 9599,4773 9605,4996 9612,5071 9619,5145 9626,5294 9633,5443 9646,5369 9653,5666 9660,5592 9667,5666 9674,5666 9681,5890 9694,5964 9701,5964 9715,6039 9722,6039 9735,6187 9742,6113 9749,6187 9763,6262 9769,6187 9783,6262 9797,6336 9804,6262 9811,6485 9817,6262 9831,6262 9838,6113 9845,6187 9852,5964 9858,6187 9879,6411 9886,6187 9893,6262 9899,6336 9906,6411 9913,6336 9927,6560 9934,6411 9940,6039 9947,5518 9954,5369 9961,6262 9975,6708 9981,6708 9995,6411 10016,6187 10022,5964 10029,5815 10036,5741 10043,5592 10050,5369 10064,5369 10070,5071 10077,4699 10084,4476 10091,4104 10098,3583 10111,2988 10118,2541 10125,1797 10132,1499 10139,1276 10146,1425 10159,1574 10166,2169 10173,2467 10180,2913 10187,3360 10193,3583 10207,3881 10214,4179 10221,4476 10228,4773 10234,4773 10248,4996 10255,5145 10262,5369 10269,5294 10275,5592 10282,5518 10296,5666 10303,5592 10310,5741 10317,5741 10323,5890 10330,5964 10344,5815 10351,5890 10358,6113 10364,5964 10371,6039 10378,6039 10392,6187 10399,6039 10405,6262 10419,6262 10440,6485 10446,6262 10453,6262 10460,6187 10467,6262 10474,6113 10487,6113 10494,6039 10501,6187 10508,6187 10515,6411 10528,6411 10542,6336 10549,6560 10556,6336 10563,5890 10576,5294 10583,5592 10590,6262 10597,6634 10604,6560 10611,6485 10624,6336 10631,6262 10638,5964 10652,5666 10672,5369 10679,5443 10686,5145 10693,4922 10699,4624 10706,4476 10720,3881 10727,3509 10734,2913 10740,2467 10747,1797 10761,1499 10768,1350 10775,1499 10782,1722 10788,2318 10795,2690 10809,2988 10816,3360 10823,3881 10829,3955 10836,4328 10843,4699 10857,4773 10864,4848 10870,5071 10877,5145 10884,5369 10891,5518 10905,5666 10911,5592 10918,5666 10925,5741 10939,5815 10952,5964 10966,5964 10973,6113 10980,6262 10987,6187 11000,6262 11014,6262 11028,6336 11041,6411 11048,6262 11062,6262 11069,6187 11076,6039 11089,6113 11096,6262 11103,6187 11110,6336 11123,6262 11137,6411 11144,6560 11151,6411 11158,6560 11164,6411 11171,5815 11185,5294 11192,5666 11199,6485 11205,6708 11212,6560 11233,6411 11240,6262 11246,6113 11260,5890 11274,5815 11281,5666 11288,5518 11294,5294 11301,5071 11308,4773 11322,4402 11329,4104 11335,3583 11342,2988 11349,2467 11356,1946 11370,1797 11376,1499 11383,1797 11390,2095 11397,2392 11404,2988 11417,3434 11424,3732 11431,4104 11438,4328 11445,4550 11452,4773 11465,5071 11472,5145 11479,5369 11486,5443 11493,5666 11513,5741 11520,5815 11527,5964 11534,5890 11541,6039 11554,6039 11561,6113 11568,6187 11575,6262 11582,6262 11588,6336 11602,6336 11609,6485 11616,6411 11623,6560 11629,6560 11650,6560 11657,6783 11664,6560 11670,6634 11684,6560 11698,6411 11705,6560 11718,6560 11725,6485 11732,6634 11746,6708 11753,6708 11759,6783 11766,6857 11773,6783 11787,6708 11794,5964 11800,5666 11807,5890 11814,6857 11821,7081 11835,6857 11841,6857 11848,6783 11855,6560 11862,6485 11869,6262 11882,6039 11889,5890 11903,5666 11910,5518 11917,5294 11930,4996 11937,4550 11944,4179 11951,3807 11958,3211 11964,2467 11978,2169 11985,1797 11992,1722 11999,1871 12006,2169 12012,2541 12026,2988 12033,3434 12040,3807 12047,4030 12053,4476 12067,4550 12074,4848 12081,4996 12088,5369 12101,5518 12115,5666 12122,5741 12129,5666 12135,5890 12142,5890 12149,5964 12163,5964 12170,6187 12176,6187 12183,6262 12190,6262 12197,6336 12211,6262 12217,6485 12224,6560 12238,6560 12245,6708 12259,6634 12265,6634 12272,6708 12279,6708 12286,6560 12300,6560 12313,6560 12327,6708 12334,6634 12347,6783 12354,6857 12361,6857 12368,6783 12375,6857 12382,6634 12395,6039 12402,5592 12409,6560 12416,7081 12423,7155 12429,7006 12443,7081 12450,6634 12464,6560 12470,6411 12477,6262 12491,6262 12498,6113 12505,5815 12512,5666 12518,5518 12525,5071 12539,4773 12546,4328 12553,3807 12559,3137 12566,2690 12580,2095 12587,1871 12600,2243 12607,2392 12614,2913 12628,3286 12635,3807 12641,3881 12648,4402 12655,4550 12662,4848 12676,5071 12682,5220 12689,5369 12696,5518 12703,5741 12710,5890 12723,5890 12730,5964 12737,5964 12744,6187 12751,6113 12758,6336 12771,6113 12778,6262 12785,6411 12792,6485 12799,6411 12812,6411 12819,6485 12826,6560 12833,6485 12840,6708 12847,6560 12860,6560 12867,6485 12874,6560 12881,6336 12888,6560 12894,6411 12908,6560 12922,6708 12929,6560 12935,6708 12942,6708 12956,6857 12963,6783 12970,6411 12977,5815 12983,5518 12990,6113 13004,6783 13018,6634 13024,6560 13031,6485 13038,6262 13052,6187 13059,6039 13065,5964 13072,5890 13079,5666 13093,5518 13100,5220 13106,5071 13113,4848 13120,4402 13127,3955 13141,3509 13147,2913 13154,2392 13161,1871 13168,1722 13175,1797 13188,2020 13195,2467 13202,2690 13209,3286 13216,3583 13223,3955 13236,4179 13243,4476 13250,4699 13257,4922 13264,5071 13271,5294 13284,5369 13291,5666 13305,5666 13325,5741 13332,5815 13339,5815 13346,5964 13353,6113 13373,6113 13380,6187 13387,6262 13394,6187 13400,6187 13407,6262 13421,6411 13428,6262 13435,6336 13441,6262 13448,6187 13455,6187 13469,6336 13476,6411 13483,6336 13489,6411 13503,6411 13517,6560 13530,6485 13537,6634 13544,6336 13551,5592 13565,5369 13571,6113 13578,6634 13585,6708 13592,6708 13606,6485 13612,6336 13619,6187 13626,6187 13633,6039 13640,5964 13653,5815 13660,5666 13667,5369 13674,5220 13681,5071 13688,4624 13701,4328 13708,3881 13715,3286 13722,2690 13729,2243 13736,1871 13749,1499 13756,1648 13763,2095 13770,2392 13777,2690 13783,3211 13797,3509 13804,3807 13811,4104 13818,4253 13824,4476 13838,4773 13845,4996 13852,5071 13859,5145 13865,5369 13872,5369 13886,5518 13893,5592 13900,5666 13906,5592 13913,5741 13920,5815 13934,5890 13941,5815 13947,6113 13954,5964 13961,5964 13968,6113 13982,6262 13989,6187 13995,6113 14002,6262 14009,6262 14030,6336 14036,6411 14043,6262 14050,6187 14057,6336 14064,6039 14077,6187 14084,6113 14091,6039 14098,6039 14105,6262 14118,6187 14125,6262 14132,6336 14139,6411 14146,6336 14166,6485 14173,5964 14180,5294 14187,5518 14194,6262 14201,6560 14214,6560 14221,6560 14228,6485 14235,6262 14242,6187 14248,6039 14262,5890 14269,5741 14276,5592 14283,5443 14289,5294 14296,5220 14310,4922 14317,4476 14324,4104 14330,3658 14337,3137 14351,2690 14358,2095 14365,1648 14371,1499 14378,1797 14385,1946 14399,2392 14406,2839 14412,3286 14419,3434 14426,3881 14433,4104 14447,4476 14454,4476 14460,4699 14467,4922 14481,5294 14495,5369 14508,5443 14515,5666 14529,5666 14542,5815 14556,5815 14563,5964 14570,5964 14590,6187 14604,6039 14611,6262 14618,6262 14631,6262 14638,6187 14645,6262 14652,6485 14659,6336 14665,6336 14679,6262 14686,6411 14693,6336 14707,6262 14713,6262 14727,6262 14741,6039 14748,6113 14754,6187 14775,6113 14782,6187 14789,6411 14802,6262 14809,6411 14823,6485 14830,6336 14836,5815 14843,5369 14850,5369 14864,6411 14871,6560 14877,6560 14884,6485 14891,6485 14898,6113 14912,6187 14918,5890 14925,5964 14932,5592 14939,5592 14946,5369 14960,5220 14966,4848 14973,4773 14980,4476 14987,4030 14994,3583 15007,2988 15014,2392 15021,1946 15028,1648 15035,1499 15042,1350 15055,1797 15062,2020 15069,2541 15076,2988 15083,3360 15089,3658 15103,3881 15110,4179 15117,4476 15124,4624 15130,4773 15144,4922 15151,5071 15158,5220 15165,5443 15172,5369 15172,5666 15172,5592"/>
 <text class="TextShape"><tspan class="TextParagraph" font-family="Liberation Sans" font-size="353px" font-weight="400"><tspan class="TextPosition" x="1259" y="8319"><tspan fill="rgb(0,0,0)" stroke="none">-10</tspan></tspan></tspan></text>
 <text class="TextShape"><tspan class="TextParagraph" font-family="Liberation Sans" font-size="353px" font-weight="400"><tspan class="TextPosition" x="2718" y="8319"><tspan fill="rgb(0,0,0)" stroke="none">-8</tspan></tspan></tspan></text>
 <text class="TextShape"><tspan class="TextParagraph" font-family="Liberation Sans" font-size="353px" font-weight="400"><tspan class="TextPosition" x="4086" y="8319"><tspan fill="rgb(0,0,0)" stroke="none">-6</tspan></tspan></tspan></text>
 <text class="TextShape"><tspan class="TextParagraph" font-family="Liberation Sans" font-size="353px" font-weight="400"><tspan class="TextPosition" x="5453" y="8319"><tspan fill="rgb(0,0,0)" stroke="none">-4</tspan></tspan></tspan></text>
 <text class="TextShape"><tspan class="TextParagraph" font-family="Liberation Sans" font-size="353px" font-weight="400"><tspan class="TextPosition" x="6821" y="8319"><tspan fill="rgb(0,0,0)" stroke="none">-2</tspan></tspan></tspan></text>
 <text class="TextShape"><tspan class="TextParagraph" font-family="Liberation Sans" font-size="353px" font-weight="400"><tspan class="TextPosition" x="8242" y="8319"><tspan fill="rgb(0,0,0)" stroke="none">0</tspan></tspan></tspan></text>
 <text class="TextShape"><tspan class="TextParagraph" font-family="Liberation Sans" font-size="353px" font-weight="400"><tspan class="TextPosition" x="9609" y="8319"><tspan fill="rgb(0,0,0)" stroke="none">2</tspan></tspan></tspan></text>
 <text class="TextShape"><tspan class="TextParagraph" font-family="Liberation Sans" font-size="353px" font-weight="400"><tspan class="TextPosition" x="10977" y="8319"><tspan fill="rgb(0,0,0)" stroke="none">4</tspan></tspan></tspan></text>
 <text class="TextShape"><tspan class="TextParagraph" font-family="Liberation Sans" font-size="353px" font-weight="400"><tspan class="TextPosition" x="12344" y="8319"><tspan fill="rgb(0,0,0)" stroke="none">6</tspan></tspan></tspan></text>
 <text class="TextShape"><tspan class="TextParagraph" font-family="Liberation Sans" font-size="353px" font-weight="400"><tspan class="TextPosition" x="13712" y="8319"><tspan fill="rgb(0,0,0)" stroke="none">8</tspan></tspan></tspan></text>
 <text class="TextShape"><tspan class="TextParagraph" font-family="Liberation Sans" font-size="353px" font-weight="400"><tspan class="TextPosition" x="14988" y="8319"><tspan fill="rgb(0,0,0)" stroke="none">10</tspan></tspan></tspan></text>
 <text class="TextShape"><tspan class="TextParagraph" font-family="Liberation Sans" font-size="353px" font-weight="400"><tspan class="TextPosition" x="771" y="7872"><tspan fill="rgb(0,0,0)" stroke="none">1.3</tspan></tspan></tspan></text>
 <text class="TextShape"><tspan class="TextParagraph" font-family="Liberation Sans" font-size="353px" font-weight="400"><tspan class="TextPosition" x="771" y="7127"><tspan fill="rgb(0,0,0)" stroke="none">1.4</tspan></tspan></tspan></text>
 <text class="TextShape"><tspan class="TextParagraph" font-family="Liberation Sans" font-size="353px" font-weight="400"><tspan class="TextPosition" x="771" y="6383"><tspan fill="rgb(0,0,0)" stroke="none">1.5</tspan></tspan></tspan></text>
 <text class="TextShape"><tspan class="TextParagraph" font-family="Liberation Sans" font-size="353px" font-weight="400"><tspan class="TextPosition" x="771" y="5639"><tspan fill="rgb(0,0,0)" stroke="none">1.6</tspan></tspan></tspan></text>
 <text class="TextShape"><tspan class="TextParagraph" font-family="Liberation Sans" font-size="353px" font-weight="400"><tspan class="TextPosition" x="771" y="4894"><tspan fill="rgb(0,0,0)" stroke="none">1.7</tspan></tspan></tspan></text>
 <text class="TextShape"><tspan class="TextParagraph" font-family="Liberation Sans" font-size="353px" font-weight="400"><tspan class="TextPosition" x="771" y="4150"><tspan fill="rgb(0,0,0)" stroke="none">1.8</tspan></tspan></tspan></text>
 <text class="TextShape"><tspan class="TextParagraph" font-family="Liberation Sans" font-size="353px" font-weight="400"><tspan class="TextPosition" x="771" y="3406"><tspan fill="rgb(0,0,0)" stroke="none">1.9</tspan></tspan></tspan></text>
 <text class="TextShape"><tspan class="TextParagraph" font-family="Liberation Sans" font-size="353px" font-weight="400"><tspan class="TextPosition" x="1062" y="2661"><tspan fill="rgb(0,0,0)" stroke="none">2</tspan></tspan></tspan></text>
 <text class="TextShape"><tspan class="TextParagraph" font-family="Liberation Sans" font-size="353px" font-weight="400"><tspan class="TextPosition" x="771" y="1917"><tspan fill="rgb(0,0,0)" stroke="none">2.1</tspan></tspan></tspan></text>
 <text class="TextShape"><tspan class="TextParagraph" font-family="Liberation Sans" font-size="353px" font-weight="400"><tspan class="TextPosition" x="771" y="1173"><tspan fill="rgb(0,0,0)" stroke="none">2.2</tspan></tspan></tspan></text>
</svg>